<svg xmlns="http://www.w3.org/2000/svg" xmlns:xlink="http://www.w3.org/1999/xlink" xml:space="preserve" version="1.0" style="shape-rendering:geometricPrecision;text-rendering:geometricPrecision;image-rendering:optimizeQuality;" viewBox="0 0 333 416.25" x="0px" y="0px" fill-rule="evenodd" clip-rule="evenodd"><defs><style type="text/css">
   
    .fil1 {fill:black}
    .fil0 {fill:black;fill-rule:nonzero}
   
  </style></defs><g><path class="fil0" d="M168 43c67,0 122,55 122,123 0,67 -55,122 -122,122 -68,0 -123,-55 -123,-122 0,-68 55,-123 123,-123zm-58 216l4 -6c2,-3 6,-1 5,3l-4 6c14,7 30,12 47,13l0 -20c0,-7 11,-7 11,0l0 20c17,-1 33,-6 47,-13l-3 -7c-2,-3 3,-6 5,-2l3 6c15,-9 27,-22 36,-36l-6 -4c-3,-1 -1,-6 2,-4l7 3c7,-14 12,-30 13,-46l-20 0c-7,0 -7,-12 0,-12l20 0c-1,-17 -6,-33 -14,-47l-6 3c-3,2 -5,-3 -2,-4l6 -4c-9,-14 -22,-26 -36,-35l-3 5c-2,4 -7,1 -5,-2l3 -6c-14,-8 -30,-12 -47,-13l0 20c0,7 -11,7 -11,0l0 -20c-17,1 -33,5 -47,13l4 6c2,3 -3,6 -5,3l-3 -6c-15,9 -28,22 -37,37l6 3c3,2 0,6 -3,5l-6 -4c-7,14 -11,30 -12,46l19 0c8,0 8,12 0,12l-19 0c1,16 5,32 13,46l6 -4c3,-1 6,3 3,5l-6 4c9,14 21,27 35,36z"/><polygon class="fil1" points="158,156 163,156 163,89 172,89 172,156 209,119 215,125 177,163 177,175 158,175 "/></g><text x="0" y="348" fill="#000000" font-size="5px" font-weight="bold" font-family="'Helvetica Neue', Helvetica, Arial-Unicode, Arial, Sans-serif">Created by yudi</text><text x="0" y="353" fill="#000000" font-size="5px" font-weight="bold" font-family="'Helvetica Neue', Helvetica, Arial-Unicode, Arial, Sans-serif">from the Noun Project</text></svg>