<svg xmlns:figma="http://www.figma.com/figma/ns" xmlns="http://www.w3.org/2000/svg" xmlns:xlink="http://www.w3.org/1999/xlink" version="1.1" x="0px" y="0px" viewBox="0 0 50 62.5" style="enable-background:new 0 0 50 50;" xml:space="preserve"><path d="M44,4h-3.5V3c0-1.7-1.3-3-3-3s-3,1.3-3,3v1h-19V3c0-1.7-1.3-3-3-3s-3,1.3-3,3v1H6c-3.3,0-6,2.7-6,6v10.5V44c0,3.3,2.7,6,6,6  h38c3.3,0,6-2.7,6-6V20.5V10C50,6.7,47.3,4,44,4z M46,44c0,1.1-0.9,2-2,2H6c-1.1,0-2-0.9-2-2V22.5h42V44z M46,18.5H4V10  c0-1.1,0.9-2,2-2h3.7c0.4,1.2,1.5,2,2.8,2s2.4-0.8,2.8-2h19.3c0.4,1.2,1.5,2,2.8,2s2.4-0.8,2.8-2H44c1.1,0,2,0.9,2,2V18.5z"/><text x="0" y="65" fill="#000000" font-size="5px" font-weight="bold" font-family="'Helvetica Neue', Helvetica, Arial-Unicode, Arial, Sans-serif">Created by Camilo Núñez</text><text x="0" y="70" fill="#000000" font-size="5px" font-weight="bold" font-family="'Helvetica Neue', Helvetica, Arial-Unicode, Arial, Sans-serif">from the Noun Project</text></svg>