<svg xmlns="http://www.w3.org/2000/svg" data-name="Layer 1" viewBox="0 0 100 125" x="0px" y="0px"><title>140all</title><path d="M93.55,25.51a8,8,0,0,0-8-8H14.45a8,8,0,0,0-8,8v49a8,8,0,0,0,8,8h71.1a8,8,0,0,0,8-8Zm-79.1-4h71.1a4,4,0,0,1,.63.06L52.89,56.36a4,4,0,0,1-5.77,0L13.82,21.57A4,4,0,0,1,14.45,21.51Zm-4,4a4,4,0,0,1,.27-1.4l21,21.95L10.45,72.2Zm75.1,53H14.45a4,4,0,0,1-2.92-1.28L34.51,49l9.72,10.16a8,8,0,0,0,11.55,0l9.08-9.49,23.6,27.59A4,4,0,0,1,85.55,78.49Zm4-6.13L67.63,46.74,89.28,24.11a4,4,0,0,1,.27,1.4Z"/><text x="0" y="115" fill="#000000" font-size="5px" font-weight="bold" font-family="'Helvetica Neue', Helvetica, Arial-Unicode, Arial, Sans-serif">Created by Drishya</text><text x="0" y="120" fill="#000000" font-size="5px" font-weight="bold" font-family="'Helvetica Neue', Helvetica, Arial-Unicode, Arial, Sans-serif">from the Noun Project</text></svg>