<?xml version="1.0" encoding="UTF-8"?>
<svg width="78px" height="60px" viewBox="0 0 78 60" version="1.1" xmlns="http://www.w3.org/2000/svg" xmlns:xlink="http://www.w3.org/1999/xlink">
    <!-- Generator: Sketch 52.5 (67469) - http://www.bohemiancoding.com/sketch -->
    <title>noun_payment_2892026</title>
    <desc>Created with Sketch.</desc>
    <g id="Page-1" stroke="none" stroke-width="1" fill="none" fill-rule="evenodd">
        <g id="Icons" transform="translate(-69.000000, -641.000000)" fill="#317363">
            <g id="noun_payment_2892026" transform="translate(69.000000, 641.000000)">
                <g id="Group">
                    <path d="M8.7150838,0 L69.2849162,0 C74.0782123,0 78,3.95604396 78,8.79120879 L78,51.2087912 C78,56.043956 74.0782123,60 69.2849162,60 L8.7150838,60 C3.92178771,60 0,56.043956 0,51.2087912 L0,8.79120879 C0,3.95604396 3.92178771,0 8.7150838,0 Z M4.1396648,14.9450549 L73.8603352,14.9450549 L73.8603352,8.79120879 C73.8603352,6.37362637 71.6815642,4.17582418 69.2849162,4.17582418 L8.7150838,4.17582418 C6.31843575,4.17582418 4.1396648,6.37362637 4.1396648,8.79120879 L4.1396648,14.9450549 Z M73.8603352,24.8351648 L4.1396648,24.8351648 L4.1396648,51.2087912 C4.1396648,53.8461538 6.31843575,55.8241758 8.7150838,55.8241758 L69.2849162,55.8241758 C71.6815642,55.8241758 73.8603352,53.8461538 73.8603352,51.2087912 L73.8603352,24.8351648 Z" id="Shape" fill-rule="nonzero"></path>
                    <path d="M14.1620112,39.3406593 C13.0726257,39.3406593 12.2011173,38.4615385 12.2011173,37.3626374 C12.2011173,36.043956 13.0726257,35.1648352 14.1620112,35.1648352 L32.6815642,35.1648352 C33.7709497,35.1648352 34.8603352,36.043956 34.8603352,37.3626374 C34.8603352,38.4615385 33.7709497,39.3406593 32.6815642,39.3406593 L14.1620112,39.3406593 Z" id="Path"></path>
                    <path d="M14.1620112,48.7912088 C13.0726257,48.7912088 12.2011173,47.6923077 12.2011173,46.5934066 C12.2011173,45.4945055 13.0726257,44.3956044 14.1620112,44.3956044 L27.0167598,44.3956044 C28.1061453,44.3956044 29.1955307,45.4945055 29.1955307,46.5934066 C29.1955307,47.6923077 28.1061453,48.7912088 27.0167598,48.7912088 L14.1620112,48.7912088 Z" id="Path"></path>
                </g>
            </g>
        </g>
    </g>
</svg>