<?xml version="1.0" encoding="UTF-8"?>
<svg width="88px" height="40px" viewBox="0 0 88 40" version="1.1" xmlns="http://www.w3.org/2000/svg" xmlns:xlink="http://www.w3.org/1999/xlink">
    <!-- Generator: Sketch 52.5 (67469) - http://www.bohemiancoding.com/sketch -->
    <title>noun_minivan shuttle_3157962</title>
    <desc>Created with Sketch.</desc>
    <g id="Page-1" stroke="none" stroke-width="1" fill="none" fill-rule="evenodd">
        <g id="Icons" transform="translate(-218.000000, -390.000000)" fill="#317363" fill-rule="nonzero">
            <g id="noun_minivan-shuttle_3157962" transform="translate(218.000000, 390.000000)">
                <path d="M86.46083,22.29217 L78.11591,15.59458 L69.77937,3.78031 C67.9049877,1.64928768 65.2043265,0.427758644 62.36627,0.42731 L6.606,0.42731 C4.81900614,0.428037275 3.26483842,1.65213079 2.84543,3.38921 L0,15.11206 L0,30.12954 C0.00271660471,31.3270227 0.91306534,32.3272906 2.105,32.44246 L11.99739,34.381 L12.81272,34.381 C12.79607,34.14806 12.77946,33.89843 12.77946,33.65717 C12.77946,29.7698254 15.9307754,26.61851 19.81812,26.61851 C23.7054646,26.61851 26.85678,29.7698254 26.85678,33.65717 C26.85678,33.89843 26.84013,34.14806 26.82352,34.381 L62.34962,34.381 C62.33301,34.14806 62.31636,33.89843 62.31636,33.65717 C62.31636,29.7698254 65.4676754,26.61851 69.35502,26.61851 C73.2423646,26.61851 76.39368,29.7698254 76.39368,33.65717 C76.39368,33.89843 76.37707,34.14806 76.36041,34.381 L82.71686,34.381 L85.67876,33.45749 C87.0598405,33.0335986 88.0019213,31.7572173 88,30.31255 L88,25.49533 C88.001713,24.2488835 87.4350739,23.0696535 86.46083,22.29217 Z M1.98015,28.53217 L1.98015,20.96095 L3.90205,21.6016 L4.34305,23.59008 C4.78555016,25.5847885 3.81050171,27.6241207 1.98015,28.53217 Z M22.156,15.74439 L13.13721,15.81924 C9.67470374,15.8489806 6.23285093,15.2833039 2.962,14.14692 L1.79719,13.75592 L4.11838,4.188 L22.156,4.188 L22.156,15.74439 Z M49.97787,15.50307 L23.91982,15.73607 L23.91982,4.188 L49.97787,4.188 L49.97787,15.50307 Z M58.85528,19.53827 L54.13784,19.53827 C53.8462436,19.5401234 53.6081167,19.3056997 53.6054,19.01411 C53.6074164,18.7208843 53.8446144,18.4836684 54.13784,18.48163 L58.85528,18.48163 C58.9966325,18.4811926 59.132321,18.5371538 59.232269,18.6371093 C59.332217,18.7370648 59.3881681,18.8727576 59.38772,19.01411 C59.387822,19.1545986 59.3314899,19.2892407 59.231374,19.3877996 C59.1312581,19.4863586 58.9957498,19.5405737 58.85528,19.53827 Z M51.75,15.49475 L51.75,4.188 L68.06546,4.188 L75.68646,15.27016 L51.75,15.49475 Z M86.23618,29.5222 L82.76678,29.01465 C80.5049455,28.6827404 78.8292739,26.7413965 78.831408,24.45534 L86.23618,25.87806 L86.23618,29.5222 Z" id="Shape"></path>
                <path d="M69.355,27.73339 C66.0867645,27.7383273 63.4398504,30.3889508 63.43949,33.65719 C63.4395559,33.8993272 63.4562619,34.1411736 63.48949,34.38102 C63.854348,37.3454875 66.3723641,39.5725932 69.3592,39.5725932 C72.3460359,39.5725932 74.864052,37.3454875 75.22891,34.38102 C75.2620785,34.1411685 75.2787543,33.8993241 75.27882,33.65719 C75.2745395,30.3873325 72.6248575,27.7376595 69.355,27.73339 Z M72.16718,34.381 C71.8389065,35.6636543 70.683201,36.5608266 69.359205,36.5608266 C68.035209,36.5608266 66.8795035,35.6636543 66.55123,34.381 C66.4843167,34.1455685 66.4507102,33.9019248 66.45139,33.65717 C66.4494611,32.6170233 67.0032653,31.6550618 67.9037386,31.1344308 C68.804212,30.6137998 69.914198,30.6137998 70.8146714,31.1344308 C71.7151447,31.6550618 72.2689489,32.6170233 72.26702,33.65717 C72.2676751,33.9019232 72.2340691,34.1455634 72.16718,34.381 Z" id="Shape"></path>
                <path d="M19.8181,27.73339 C16.5482542,27.737676 13.8985905,30.3873442 13.89431,33.65719 C13.8943757,33.8993241 13.9110515,34.1411685 13.94422,34.38102 C14.3089663,37.3455956 16.8270304,39.572837 19.81396,39.572837 C22.8008896,39.572837 25.3189537,37.3455956 25.6837,34.38102 C25.7168685,34.1411685 25.7335443,33.8993241 25.73361,33.65719 C25.7332496,30.3889508 23.0863355,27.7383273 19.8181,27.73339 Z M22.62191,34.381 C22.2936365,35.6636543 21.137931,36.5608266 19.813935,36.5608266 C18.489939,36.5608266 17.3342335,35.6636543 17.00596,34.381 C16.9390709,34.1455634 16.9054649,33.9019232 16.90612,33.65717 C16.90612,32.6182988 17.4603511,31.6583422 18.36004,31.1389066 C19.2597288,30.619471 20.3681912,30.619471 21.26788,31.1389066 C22.1675689,31.6583422 22.7218,32.6182988 22.7218,33.65717 C22.7224635,33.9019272 22.6888402,34.1455709 22.62191,34.381 Z" id="Shape"></path>
            </g>
        </g>
    </g>
</svg>