<?xml version="1.0" encoding="UTF-8"?>
<svg width="98px" height="86px" viewBox="0 0 98 86" version="1.1" xmlns="http://www.w3.org/2000/svg" xmlns:xlink="http://www.w3.org/1999/xlink">
    <!-- Generator: Sketch 52.5 (67469) - http://www.bohemiancoding.com/sketch -->
    <title>Shape</title>
    <desc>Created with Sketch.</desc>
    <g id="Page-1" stroke="none" stroke-width="1" fill="none" fill-rule="evenodd">
        <g id="Icons" transform="translate(-228.000000, -647.000000)" fill="#317363" fill-rule="nonzero">
            <path d="M230.515,697.1 L228.015,672.6 C227.915,671.4 228.315,670.2 229.215,669.4 C230.315,668.5 232.115,668.2 233.515,669.7 C234.415,670.8 234.915,674.1 235.115,675 C235.615,678.2 236.215,682.8 236.315,686 C236.315,686.2 236.315,686.5 236.315,686.7 C236.415,688.1 236.715,689.4 237.315,690.7 C240.615,697.8 247.115,706.8 247.115,706.8 L247.515,707.3 C247.815,707.7 248.315,707.8 248.715,707.6 C249.215,707.3 249.315,706.7 249.115,706.3 L240.415,692.2 C239.515,690.6 240.015,688.4 241.715,687.4 C243.415,686.4 245.615,686.9 246.615,688.5 L255.615,700.1 C256.215,700.9 257.315,702 258.115,702.5 C266.215,708.3 267.315,714.3 268.015,717.3 C268.015,717.3 268.115,718 268.115,719 C268.115,719.8 268.115,720.8 267.915,721.8 L267.415,731.5 C267.415,732.2 266.815,732.8 266.115,732.8 L250.915,732.7 C250.215,732.7 249.615,732.1 249.615,731.4 L249.315,723.4 L234.715,705.9 C232.615,703.6 231.115,701.1 230.715,698 L230.515,697.1 Z M237.115,671.4 C237.415,672.3 237.515,673.1 237.715,674 C238.215,676.8 238.815,681.8 238.915,684.4 C238.915,684.7 238.915,684.9 238.915,685.2 C239.215,684.9 239.515,684.7 239.915,684.5 C240.315,684.2 240.815,684 241.315,683.9 C241.315,683.9 241.315,683.8 241.415,683.8 C241.115,681.3 240.215,676.5 239.515,674 C239.115,672.7 238.415,671.8 237.115,671.4 Z M242.015,674.9 C242.415,676.7 243.415,680.1 243.715,681.9 L243.915,683.1 C243.915,683.2 243.915,683.3 243.915,683.4 C244.615,683.4 245.415,683.6 246.115,683.8 C245.915,682.2 244.815,678.9 244.415,677.4 C243.915,676.2 243.215,675.3 242.015,674.9 Z M319.715,669.7 C318.815,670.8 318.315,674.1 318.115,675 C317.615,678.2 317.015,682.8 316.915,686 C316.915,686.2 316.915,686.5 316.915,686.7 C316.815,688.1 316.515,689.4 315.915,690.7 C312.615,697.8 306.115,706.8 306.115,706.8 L305.715,707.3 C305.415,707.7 304.915,707.8 304.515,707.6 C304.015,707.3 303.915,706.7 304.115,706.3 L312.815,692.2 C313.715,690.6 313.215,688.4 311.515,687.4 C309.815,686.4 307.615,686.9 306.615,688.5 L297.615,700.1 C297.015,700.9 295.915,702 295.115,702.5 C287.015,708.3 285.915,714.3 285.215,717.3 C285.215,717.3 285.115,718 285.115,719 C285.115,719.8 285.115,720.8 285.315,721.8 L285.815,731.5 C285.815,732.2 286.415,732.8 287.115,732.8 L302.315,732.7 C303.015,732.7 303.615,732.1 303.615,731.4 L303.915,723.4 L318.515,705.9 C320.615,703.6 322.115,701.1 322.615,698 L322.715,697.1 L325.215,672.6 C325.315,671.4 324.915,670.2 324.015,669.4 C322.815,668.5 321.015,668.2 319.715,669.7 Z M314.315,685.2 C314.315,684.9 314.315,684.7 314.315,684.4 C314.415,681.7 315.015,676.8 315.515,674 C315.615,673.2 315.815,672.3 316.115,671.4 C314.815,671.8 314.115,672.7 313.815,674 C313.115,676.5 312.315,681.3 311.915,683.8 C311.915,683.8 311.915,683.9 312.015,683.9 C312.515,684.1 312.915,684.3 313.415,684.5 C313.715,684.7 314.015,684.9 314.315,685.2 Z M309.515,681.9 C309.715,680.1 310.815,676.8 311.215,674.9 C310.015,675.3 309.315,676.2 308.915,677.4 C308.515,678.9 307.415,682.2 307.215,683.8 C307.915,683.5 308.615,683.4 309.415,683.4 C309.415,683.3 309.415,683.2 309.415,683.1 L309.515,681.9 Z M296.815,659.1 L294.015,661.9 C295.515,664.2 296.615,666.8 297.215,669.6 L301.215,669.6 C302.215,669.6 303.015,670.4 303.015,671.4 L303.015,676.2 C303.015,677.2 302.215,678 301.215,678 L297.215,678 C296.615,680.8 295.515,683.4 294.015,685.7 L296.815,688.5 C297.515,689.2 297.515,690.3 296.815,691 L293.415,694.4 C292.715,695.1 291.615,695.1 290.915,694.4 L288.115,691.6 C285.815,693.1 283.215,694.3 280.415,694.8 L280.415,698.8 C280.415,699.8 279.615,700.6 278.615,700.6 L273.815,700.6 C272.815,700.6 272.015,699.8 272.015,698.8 L272.015,694.8 C269.215,694.2 266.615,693.1 264.315,691.6 L261.515,694.4 C260.815,695.1 259.715,695.1 259.015,694.4 L255.615,691 C254.915,690.3 254.915,689.2 255.615,688.5 L258.415,685.7 C256.915,683.4 255.815,680.8 255.215,678 L251.215,678 C250.215,678 249.415,677.2 249.415,676.2 L249.415,671.4 C249.415,670.4 250.215,669.6 251.215,669.6 L255.215,669.6 C255.815,666.8 256.915,664.2 258.415,661.9 L255.615,659.1 C254.915,658.4 254.915,657.3 255.615,656.6 L259.015,653.2 C259.715,652.5 260.815,652.5 261.515,653.2 L264.315,656 C266.615,654.5 269.215,653.3 272.015,652.8 L272.015,648.8 C272.015,647.8 272.815,647 273.815,647 L278.615,647 C279.615,647 280.415,647.8 280.415,648.8 L280.415,652.8 C283.215,653.4 285.815,654.5 288.115,656 L290.915,653.2 C291.615,652.5 292.715,652.5 293.415,653.2 L296.815,656.6 C297.515,657.3 297.515,658.4 296.815,659.1 Z M290.215,673.8 C290.215,666 283.915,659.7 276.115,659.7 C268.315,659.7 262.015,666 262.015,673.8 C262.015,681.6 268.315,687.9 276.115,687.9 C283.915,687.9 290.215,681.6 290.215,673.8 Z M273.915,674.3 L270.615,671 L267.115,674.4 L270.415,677.7 L273.815,681.2 L277.315,677.8 L285.215,669.9 L281.815,666.4 L273.915,674.3 Z" id="Shape"></path>
        </g>
    </g>
</svg>