<?xml version="1.0" encoding="UTF-8"?>
<svg width="126px" height="17px" viewBox="0 0 126 17" version="1.1" xmlns="http://www.w3.org/2000/svg" xmlns:xlink="http://www.w3.org/1999/xlink">
    <!-- Generator: Sketch 52.5 (67469) - http://www.bohemiancoding.com/sketch -->
    <title>Powered by Stripe - blurple</title>
    <desc>Created with Sketch.</desc>
    <g id="Page-1" stroke="none" stroke-width="1" fill="none" fill-rule="evenodd">
        <g id="Powered-by-Stripe---blurple" transform="translate(-12.000000, -9.000000)" fill="#635BFF">
            <path d="M17.07,11.24 L12.77,11.24 L12.77,22 L14.69,22 L14.69,17.84 L17.07,17.84 C19.47,17.84 20.97,16.68 20.97,14.54 C20.97,12.4 19.47,11.24 17.07,11.24 Z M16.97,16.24 L14.69,16.24 L14.69,12.94 L17,12.94 C18.38,12.94 19.11,13.53 19.11,14.59 C19.11,15.65 18.35,16.19 17,16.19 L16.97,16.24 Z" id="Shape" fill-rule="nonzero"></path>
            <path d="M25.1,14 C24.0369367,13.9876973 23.0180933,14.4248155 22.2944632,15.20367 C21.5708331,15.9825245 21.2096893,17.0307083 21.3,18.09 C21.172164,19.526381 21.8662382,20.9118453 23.0932199,21.6695051 C24.3202016,22.4271649 25.8697984,22.4271649 27.0967801,21.6695051 C28.3237618,20.9118453 29.017836,19.526381 28.89,18.09 C28.9833163,17.0317155 28.6245772,15.9833456 27.9024765,15.2040866 C27.1803758,14.4248275 26.1623162,13.9874173 25.1,14 Z M25.1,20.67 C23.88,20.67 23.1,19.67 23.1,18.09 C23.1,16.51 23.86,15.51 25.1,15.51 C26.34,15.51 27.1,16.51 27.1,18.09 C27.1,19.67 26.31,20.66 25.1,20.66 L25.1,20.67 Z" id="Shape" fill-rule="nonzero"></path>
            <polygon id="Path" points="36.78 19.35 35.37 14.13 33.89 14.13 32.49 19.35 31.07 14.13 29.22 14.13 31.59 22.01 33.15 22.01 34.59 16.85 36.03 22.01 37.59 22.01 39.96 14.13 38.18 14.13"></polygon>
            <path d="M44,14 C42.9514865,14.0194733 41.9568201,14.4680308 41.2481059,15.2410018 C40.5393917,16.0139727 40.1786284,17.0437372 40.25,18.09 C40.1654879,19.1530515 40.5327423,20.2025193 41.2616577,20.9809172 C41.990573,21.759315 43.0136946,22.194609 44.08,22.18 C45.5666298,22.2600975 46.9386882,21.3829458 47.49,20 L46,19.38 C45.7591798,20.1758823 44.9994232,20.6989934 44.17,20.64 C43.5903481,20.6538401 43.0303222,20.429663 42.6203296,20.0196704 C42.210337,19.6096778 41.9861599,19.0496519 42,18.47 L47.52,18.47 L47.52,17.87 C47.54,15.71 46.32,14 44,14 Z M42.07,17.13 C42.2149651,16.1803492 43.0394817,15.4839958 44,15.5 C44.4464055,15.4622713 44.8874858,15.6182821 45.2108945,15.9282952 C45.5343032,16.2383083 45.7088222,16.6723986 45.69,17.12 L42.07,17.13 Z" id="Shape" fill-rule="nonzero"></path>
            <path d="M50.69,15.3 L50.69,14.13 L48.89,14.13 L48.89,22 L50.69,22 L50.69,17.87 C50.6575564,17.3302733 50.8578295,16.8024961 51.2401628,16.4201628 C51.6224961,16.0378295 52.1502733,15.8375564 52.69,15.87 C52.9097259,15.8544678 53.1302741,15.8544678 53.35,15.87 L53.35,14.07 C53.21,14.07 53.05,14.07 52.84,14.07 C51.9443009,14.0235886 51.1039577,14.5043431 50.69,15.3 Z" id="Path"></path>
            <path d="M57.48,14 C56.4314865,14.0194733 55.4368201,14.4680308 54.7281059,15.2410018 C54.0193917,16.0139727 53.6586284,17.0437372 53.73,18.09 C53.6454879,19.1530515 54.0127423,20.2025193 54.7416577,20.9809172 C55.470573,21.759315 56.4936946,22.194609 57.56,22.18 C59.0322673,22.2426142 60.3835091,21.3685172 60.93,20 L59.39,19.41 C59.1491798,20.2058823 58.3894232,20.7289934 57.56,20.67 C56.9924464,20.6648039 56.4506771,20.4322446 56.0559717,20.0243823 C55.6612662,19.6165199 55.44659,19.067419 55.46,18.5 L61,18.5 L61,17.9 C61,15.71 59.76,14 57.48,14 Z M55.55,17.13 C55.6989216,16.1881428 56.5165139,15.4982993 57.47,15.51 C57.9164055,15.4722713 58.3574858,15.6282821 58.6808945,15.9382952 C59.0043032,16.2483083 59.1788222,16.6823986 59.16,17.13 L55.55,17.13 Z" id="Shape" fill-rule="nonzero"></path>
            <path d="M67.56,15 C66.9978896,14.340392 66.1661918,13.9723841 65.3,14 C63.09,14 61.83,15.85 61.83,18.09 C61.83,20.33 63.09,22.18 65.3,22.18 C66.1670577,22.2120924 67.0006201,21.8432594 67.56,21.18 L67.56,22 L69.36,22 L69.36,11.24 L67.56,11.24 L67.56,15 Z M67.56,18.35 C67.6416119,18.9269967 67.4675096,19.5108928 67.083229,19.9489728 C66.6989483,20.3870527 66.1427115,20.6357431 65.56,20.63 C64.25,20.63 63.56,19.63 63.56,18.11 C63.56,16.59 64.26,15.59 65.56,15.59 C66.67,15.59 67.56,16.4 67.56,17.88 L67.56,18.35 Z" id="Shape" fill-rule="nonzero"></path>
            <path d="M79.31,14 C78.427378,13.9613825 77.5758628,14.3300038 77,15 L77,11.24 L75.2,11.24 L75.2,22 L77,22 L77,21.17 C77.5652211,21.8311946 78.4006326,22.1992173 79.27,22.17 C81.47,22.17 82.73,20.31 82.73,18.08 C82.73,15.85 81.51,14 79.31,14 Z M79,20.6 C78.4172885,20.6057431 77.8610517,20.3570527 77.476771,19.9189728 C77.0924904,19.4808928 76.9183881,18.8969967 77,18.32 L77,17.85 C77,16.37 77.84,15.56 79,15.56 C80.3,15.56 81,16.56 81,18.08 C81,19.6 80.25,20.6 79,20.6 Z" id="Shape" fill-rule="nonzero"></path>
            <path d="M86.93,19.66 L85,14.13 L83.1,14.13 L86,21.72 L85.7,22.46 C85.5940292,22.9868898 85.090549,23.3357928 84.56,23.25 C84.3602658,23.2645825 84.1597342,23.2645825 83.96,23.25 L83.96,24.76 C84.2016287,24.7959402 84.4457275,24.8126593 84.69,24.81 C85.9784883,24.903683 87.1492192,24.0614305 87.47,22.81 L90.71,14.19 L88.82,14.19 L86.93,19.66 Z" id="Path"></path>
            <path d="M125,12.43 C124.202591,12.4253897 123.436156,12.7384405 122.87,13.3 L122.73,12.61 L120.34,12.61 L120.34,25.53 L123.06,24.94 L123.06,21.81 C123.600988,22.263052 124.284363,22.5109082 124.99,22.51 C126.93,22.51 128.71,20.92 128.71,17.4 C128.71,14.18 126.91,12.43 125,12.43 Z M124.35,20.06 C123.866866,20.0878478 123.396832,19.8968963 123.07,19.54 L123.07,15.43 C123.39823,15.0600188 123.875901,14.8579269 124.37,14.88 C125.37,14.88 126.05,16.01 126.05,17.46 C126.05,18.91 125.36,20.06 124.35,20.06 Z" id="Shape" fill-rule="nonzero"></path>
            <path d="M133.73,12.43 C131.11,12.43 129.52,14.69 129.52,17.54 C129.52,20.91 131.4,22.62 134.08,22.62 C135.125955,22.6370614 136.158824,22.3857298 137.08,21.89 L137.08,19.64 C136.243428,20.0621 135.31691,20.274856 134.38,20.26 C133.3,20.26 132.38,19.87 132.24,18.56 L137.62,18.56 C137.62,18.41 137.62,17.82 137.62,17.56 C137.71,14.69 136.35,12.43 133.73,12.43 Z M132.26,16.5 C132.26,15.24 133.03,14.71 133.71,14.71 C134.39,14.71 135.11,15.24 135.11,16.5 L132.26,16.5 Z" id="Shape" fill-rule="nonzero"></path>
            <path d="M113,13.36 L112.83,12.54 L110.51,12.54 L110.51,22.25 L113.19,22.25 L113.19,15.67 C113.685633,15.0682562 114.502572,14.8371223 115.24,15.09 L115.24,12.54 C114.393396,12.2083475 113.432391,12.5601438 113,13.36 Z" id="Path"></path>
            <path d="M99.46,15.46 C99.46,15.02 99.82,14.85 100.39,14.85 C101.33467,14.8703342 102.260639,15.1172592 103.09,15.57 L103.09,12.94 C102.232531,12.5932941 101.314855,12.4199552 100.39,12.43 C98.18,12.43 96.71,13.61 96.71,15.59 C96.71,18.69 100.85,18.19 100.85,19.52 C100.85,20.04 100.41,20.21 99.85,20.21 C98.7934623,20.1482579 97.7660501,19.8400342 96.85,19.31 L96.85,22 C97.7941369,22.4210982 98.816212,22.6391409 99.85,22.64 C102.11,22.64 103.67,21.49 103.67,19.48 C103.62,16.12 99.46,16.72 99.46,15.46 Z" id="Path"></path>
            <path d="M107.28,10.24 L104.63,10.82 L104.63,19.75 C104.602391,20.5105787 104.888941,21.2490114 105.422356,21.791884 C105.955771,22.3347566 106.689054,22.6342388 107.45,22.62 C108.106962,22.649368 108.761528,22.5225673 109.36,22.25 L109.36,20 C109.01,20.15 107.3,20.66 107.3,19 L107.3,15 L109.36,15 L109.36,12.66 L107.3,12.66 L107.28,10.24 Z" id="Path"></path>
            <polygon id="Path" points="116.25 11.7 118.98 11.13 118.98 8.97 116.25 9.54"></polygon>
            <rect id="Rectangle" x="116.25" y="12.61" width="2.73" height="9.64"></rect>
        </g>
    </g>
</svg>