<?xml version="1.0" encoding="UTF-8"?>
<svg width="137px" height="129px" viewBox="0 0 137 129" version="1.1" xmlns="http://www.w3.org/2000/svg" xmlns:xlink="http://www.w3.org/1999/xlink">
    <!-- Generator: Sketch 52.5 (67469) - http://www.bohemiancoding.com/sketch -->
    <title>Icon 2</title>
    <desc>Created with Sketch.</desc>
    <g id="Page-1" stroke="none" stroke-width="1" fill="none" fill-rule="evenodd">
        <g id="About" transform="translate(-614.000000, -880.000000)">
            <g id="Icon-2" transform="translate(614.000000, 880.000000)">
                <ellipse id="Oval" fill="#317363" cx="68.5" cy="64.5" rx="68.5" ry="64.5"></ellipse>
                <g id="Group" transform="translate(34.000000, 30.000000)" fill="#FFFFFF">
                    <circle id="Oval" cx="34.5" cy="2.5" r="2.5"></circle>
                    <path d="M2.4945719,37 C2.54387834,36.9896441 2.59427985,36.9854453 2.64462085,36.9875 C3.96585074,36.9149481 5,35.8227918 5,34.500004 C5,33.1772161 3.96585074,32.0850598 2.64462085,32.012508 C2.59460453,32.012508 2.54458822,32.000008 2.50707598,32.000008 C1.12591346,31.9965562 0.00346089108,33.1130443 7.98480451e-06,34.493754 C-0.00344492148,35.8744637 1.11340938,36.9965482 2.4945719,37 Z" id="Path"></path>
                    <path d="M66.3553792,32.0125 C65.0341493,32.0850519 64,33.1772082 64,34.4999961 C64,35.822784 65.0341493,36.9149403 66.3553792,36.9874922 C66.4053955,36.9874922 66.4554119,36.9999922 66.4929241,36.9999922 C67.3863796,37.0022251 68.2131582,36.5277918 68.6618203,35.7554068 C69.1104825,34.9830217 69.1128657,34.0300286 68.6680724,33.2554107 C68.223279,32.4807928 67.3988837,32.0022329 66.5054282,32 C66.4561217,32.0103559 66.4057202,32.0145547 66.3553792,32.0125 Z" id="Path"></path>
                    <path d="M11,22 C17.0751322,22 22,17.0751322 22,11 C22,4.92486775 17.0751322,5.42775701e-16 11,0 C4.92486775,-5.42775701e-16 0,4.92486775 0,11 C0.00942216007,17.0712252 4.92877482,21.9905778 11,22 Z M3.75833333,14.8218889 C4.10829255,12.871805 5.03615032,11.0718716 6.42155556,9.65555556 C6.44350833,9.6303237 6.46676213,9.60625397 6.49122222,9.58344444 C6.94130069,9.16453387 7.44571831,8.80811164 7.99088889,8.52377778 C7.3225458,7.72680106 6.95643823,6.71978886 6.95688889,5.67966667 C6.95642183,5.42804896 6.97851022,5.17689584 7.02288889,4.92922222 C7.28777692,2.92426583 8.97799294,1.41377162 11,1.375 C13.0320671,1.41803873 14.7263583,2.94232885 14.9832222,4.95855556 C15.0239853,5.19509915 15.0440243,5.4347493 15.0431111,5.67477778 C15.048063,6.629193 14.7450218,7.55974821 14.179,8.32822222 C14.1264444,8.39911111 14.0567778,8.45044444 14.0054444,8.51644444 C14.5518367,8.80159643 15.0574656,9.1588253 15.5087778,9.57855556 C15.5339421,9.60146835 15.5576198,9.62596249 15.5796667,9.65188889 C16.9656259,11.0707246 17.8934533,12.8731539 18.2428889,14.8255556 C18.3906915,15.5783939 18.4643769,16.3439026 18.4628889,17.1111111 C18.4628889,17.7861258 17.9156814,18.3333333 17.2406667,18.3333333 L4.75933333,18.3333333 C4.08431864,18.3333333 3.53711111,17.7861258 3.53711111,17.1111111 C3.53559669,16.3426285 3.60969434,15.5758612 3.75833333,14.8218889 Z" id="Shape" fill-rule="nonzero"></path>
                    <path d="M11.5018373,8 C11.9558816,7.9888856 12.377674,7.72765932 12.6357179,7.29776021 C12.8755728,6.92165473 13.0033279,6.4664429 12.9999341,6 C13.0007495,5.88958873 12.992698,5.77932681 12.9758821,5.67061924 C12.9127941,4.77023347 12.285402,4.0591741 11.5018373,4 C10.7290629,4.05333582 10.1055904,4.74704438 10.0335193,5.63372859 C10.0133878,5.75443517 10.0034155,5.87709259 10.0037406,6 C9.94380539,7.02569285 10.6111284,7.91658729 11.5018373,8 Z" id="Path"></path>
                    <path d="M15.9023003,15.3816694 C15.6432635,13.8238025 14.9295558,12.3849126 13.8567895,11.2577619 C13.836197,11.2390455 13.8167825,11.2189899 13.7986644,11.1977174 C13.0564712,10.4308413 12.0497395,10 11,10 C9.9502605,10 8.94352882,10.4308413 8.20133564,11.1977174 C8.18321751,11.2189899 8.16380296,11.2390455 8.14321049,11.2577619 C7.0711752,12.383758 6.35789048,13.8213277 6.09893643,15.3778368 C6.06059857,15.5822436 6.02720752,15.790483 6,16 L16,16 C15.9727925,15.7917606 15.9468217,15.5847987 15.9023003,15.3816694 Z" id="Path"></path>
                    <path d="M59,22 C65.0751322,22 70,17.0751322 70,11 C70,4.92486775 65.0751322,5.42775701e-16 59,0 C52.9248678,-5.42775701e-16 48,4.92486775 48,11 C48.0094222,17.0712252 52.9287748,21.9905778 59,22 Z M51.7583333,14.8218889 C52.1082925,12.871805 53.0361503,11.0718716 54.4215556,9.65555556 C54.4435083,9.6303237 54.4667621,9.60625397 54.4912222,9.58344444 C54.9413007,9.16453387 55.4457183,8.80811164 55.9908889,8.52377778 C55.3225458,7.72680106 54.9564382,6.71978886 54.9568889,5.67966667 C54.9564218,5.42804896 54.9785102,5.17689584 55.0228889,4.92922222 C55.2539843,2.89968704 56.9757642,1.36947074 59.0183951,1.3782522 C61.061026,1.38703367 62.7695854,2.93199731 62.9832222,4.96344444 C63.0239853,5.19998804 63.0440243,5.43963819 63.0431111,5.67966667 C63.048063,6.63408189 62.7450218,7.5646371 62.179,8.33311111 C62.1264444,8.404 62.0567778,8.45533333 62.0054444,8.52133333 C62.5518367,8.80648532 63.0574656,9.16371419 63.5087778,9.58344444 C63.5339421,9.60635724 63.5576198,9.63085138 63.5796667,9.65677778 C64.9656259,11.0756134 65.8934533,12.8780428 66.2428889,14.8304444 C66.3906915,15.5832828 66.4643769,16.3487915 66.4628889,17.116 C66.4628889,17.7910147 65.9156814,18.3382222 65.2406667,18.3382222 L52.7593333,18.3382222 C52.0843186,18.3382222 51.5371111,17.7910147 51.5371111,17.116 C51.5352756,16.3458842 51.6093748,15.5774636 51.7583333,14.8218889 Z" id="Shape" fill-rule="nonzero"></path>
                    <path d="M58.5018373,8 C58.9558816,7.9888783 59.377674,7.72748044 59.6357179,7.29729898 C59.8755728,6.92094647 60.0033279,6.46543565 59.9999341,5.99868639 C60.0007495,5.88820261 59.992698,5.77786827 59.9758821,5.66908929 C59.9640849,4.75049355 59.3183874,4.01011505 58.5203288,4.0001026 C57.7222701,3.99009016 57.0627071,4.71409287 57.0335193,5.63217442 C57.0133878,5.75296028 57.0034155,5.87569826 57.0037406,5.99868639 C56.9438054,7.02505292 57.6111284,7.91653251 58.5018373,8 Z" id="Path"></path>
                    <path d="M63.9023003,15.3816694 C63.6432635,13.8238025 62.9295558,12.3849126 61.8567895,11.2577619 C61.836197,11.2390455 61.8167825,11.2189899 61.7986644,11.1977174 C61.0564712,10.4308413 60.0497395,10 59,10 C57.9502605,10 56.9435288,10.4308413 56.2013356,11.1977174 C56.1832175,11.2189899 56.163803,11.2390455 56.1432105,11.2577619 C55.0711752,12.383758 54.3578905,13.8213277 54.0989364,15.3778368 C54.0605986,15.5822436 54.0272075,15.790483 54,16 L64,16 C63.9727925,15.7917606 63.9468217,15.5847987 63.9023003,15.3816694 Z" id="Path"></path>
                    <circle id="Oval" cx="34.5" cy="66.5" r="2.5"></circle>
                    <path d="M41.1011111,37.4322222 C41.2473149,36.9874508 41.638345,36.6679506 42.1033333,36.6133333 L45,36.2466667 L45,33.7533333 L42.1033333,33.3866667 C41.638345,33.3320494 41.2473149,33.0125492 41.1011111,32.5677778 C40.9911111,32.2744444 40.8688889,31.9811111 40.7344444,31.7 C40.5250035,31.2826359 40.5774969,30.7815626 40.8688889,30.4166667 L42.6655556,28.1066667 L40.8933333,26.3344444 L38.5833333,28.1311111 C38.2184374,28.4225031 37.7173641,28.4749965 37.3,28.2655556 C37.0188889,28.1311111 36.7255556,28.0088889 36.4322222,27.8988889 C35.9874508,27.7526851 35.6679506,27.361655 35.6133333,26.8966667 L35.2466667,24 L32.7533333,24 L32.3866667,26.8966667 C32.3320494,27.361655 32.0125492,27.7526851 31.5677778,27.8988889 C31.2744444,28.0088889 30.9811111,28.1311111 30.7,28.2655556 C30.2826359,28.4749965 29.7815626,28.4225031 29.4166667,28.1311111 L27.1066667,26.3344444 L25.3344444,28.1066667 L27.1311111,30.4166667 C27.4225031,30.7815626 27.4749965,31.2826359 27.2655556,31.7 C27.1311111,31.9811111 27.0088889,32.2744444 26.8988889,32.5677778 C26.7526851,33.0125492 26.361655,33.3320494 25.8966667,33.3866667 L23,33.7533333 L23,36.2466667 L25.8966667,36.6133333 C26.361655,36.6679506 26.7526851,36.9874508 26.8988889,37.4322222 C27.0088889,37.7255556 27.1311111,38.0188889 27.2655556,38.3 C27.4749965,38.7173641 27.4225031,39.2184374 27.1311111,39.5833333 L25.3344444,41.8933333 L27.1066667,43.6655556 L29.4166667,41.8688889 C29.7815626,41.5774969 30.2826359,41.5250035 30.7,41.7344444 C30.9869997,41.8713447 31.2807041,41.9937216 31.58,42.1011111 C32.0191041,42.2524658 32.3326536,42.6420273 32.3866667,43.1033333 L32.7533333,46 L35.2466667,46 L35.6133333,43.1033333 C35.6673464,42.6420273 35.9808959,42.2524658 36.42,42.1011111 C36.7192959,41.9937216 37.0130003,41.8713447 37.3,41.7344444 C37.7173641,41.5250035 38.2184374,41.5774969 38.5833333,41.8688889 L40.8933333,43.6655556 L42.6655556,41.8933333 L40.8688889,39.5833333 C40.5774969,39.2184374 40.5250035,38.7173641 40.7344444,38.3 C40.8688889,38.0188889 40.9911111,37.7255556 41.1011111,37.4322222 Z M34,41.1111111 C30.6249265,41.1111111 27.8888889,38.3750735 27.8888889,35 C27.8888889,31.6249265 30.6249265,28.8888889 34,28.8888889 C37.3750735,28.8888889 40.1111111,31.6249265 40.1111111,35 C40.1070703,38.3733983 37.3733983,41.1070703 34,41.1111111 Z" id="Shape" fill-rule="nonzero"></path>
                    <circle id="Oval" cx="34.5" cy="34.5" r="3.5"></circle>
                    <path d="M11,47 C4.92486775,47 5.42775701e-16,51.9248678 0,58 C-5.42775701e-16,64.0751322 4.92486775,69 11,69 C17.0751322,69 22,64.0751322 22,58 C21.9905778,51.9287748 17.0712252,47.0094222 11,47 Z M17.2406667,65.3333333 L4.75933333,65.3333333 C4.08431864,65.3333333 3.53711111,64.7861258 3.53711111,64.1111111 C3.53559669,63.3426285 3.60969434,62.5758612 3.75833333,61.8218889 C4.10829255,59.871805 5.03615032,58.0718716 6.42155556,56.6555556 C6.44350833,56.6303237 6.46676213,56.606254 6.49122222,56.5834444 C6.94130069,56.1645339 7.44571831,55.8081116 7.99088889,55.5237778 C7.3225458,54.7268011 6.95643823,53.7197889 6.95688889,52.6796667 C6.95642183,52.428049 6.97851022,52.1768958 7.02288889,51.9292222 C7.28777692,49.9242658 8.97799294,48.4137716 11,48.375 C13.2722465,48.5145374 15.0435155,50.3982509 15.0431111,52.6747778 C15.048063,53.629193 14.7450218,54.5597482 14.179,55.3282222 C14.1264444,55.3991111 14.0567778,55.4504444 14.0054444,55.5164444 C14.5518367,55.8015964 15.0574656,56.1588253 15.5087778,56.5785556 C15.5339421,56.6014683 15.5576198,56.6259625 15.5796667,56.6518889 C16.9656259,58.0707246 17.8934533,59.8731539 18.2428889,61.8255556 C18.3906915,62.5783939 18.4643769,63.3439026 18.4628889,64.1111111 C18.4628889,64.7861258 17.9156814,65.3333333 17.2406667,65.3333333 Z" id="Shape" fill-rule="nonzero"></path>
                    <path d="M11.5018373,55 C11.9558816,54.9888856 12.377674,54.7276593 12.6357179,54.2977602 C12.8755728,53.9216547 13.0033279,53.4664429 12.9999341,53 C13.0007495,52.8895887 12.992698,52.7793268 12.9758821,52.6706192 C12.9127941,51.7702335 12.285402,51.0591741 11.5018373,51 C10.7290629,51.0533358 10.1055904,51.7470444 10.0335193,52.6337286 C10.0133878,52.7544352 10.0034155,52.8770926 10.0037406,53 C9.94380539,54.0256929 10.6111284,54.9165873 11.5018373,55 Z" id="Path"></path>
                    <path d="M13.8567895,58.2577619 C13.836197,58.2390455 13.8167825,58.2189899 13.7986644,58.1977174 C13.0564712,57.4308413 12.0497395,57 11,57 C9.9502605,57 8.94352882,57.4308413 8.20133564,58.1977174 C8.18321751,58.2189899 8.16380296,58.2390455 8.14321049,58.2577619 C7.0711752,59.383758 6.35789048,60.8213277 6.09893643,62.3778368 C6.06059857,62.5822436 6.02720752,62.790483 6,63 L16,63 C15.9727925,62.7917606 15.9406381,62.5847987 15.9023003,62.3816694 C15.6432635,60.8238025 14.9295558,59.3849126 13.8567895,58.2577619 Z" id="Path"></path>
                    <path d="M59,47 C52.9248678,47 48,51.9248678 48,58 C48,64.0751322 52.9248678,69 59,69 C65.0751322,69 70,64.0751322 70,58 C69.9905778,51.9287748 65.0712252,47.0094222 59,47 Z M65.2406667,65.3333333 L52.7593333,65.3333333 C52.0843186,65.3333333 51.5371111,64.7861258 51.5371111,64.1111111 C51.5355967,63.3426285 51.6096943,62.5758612 51.7583333,61.8218889 C52.1082925,59.871805 53.0361503,58.0718716 54.4215556,56.6555556 C54.4435083,56.6303237 54.4667621,56.606254 54.4912222,56.5834444 C54.9413007,56.1645339 55.4457183,55.8081116 55.9908889,55.5237778 C55.3225458,54.7268011 54.9564382,53.7197889 54.9568889,52.6796667 C54.9564218,52.428049 54.9785102,52.1768958 55.0228889,51.9292222 C55.3998618,49.8674612 57.2899063,48.4356207 59.3767316,48.630883 C61.4635569,48.8261452 63.0551671,50.5837607 63.0431111,52.6796667 C63.048063,53.6340819 62.7450218,54.5646371 62.179,55.3331111 C62.1264444,55.404 62.0567778,55.4553333 62.0054444,55.5213333 C62.5518367,55.8064853 63.0574656,56.1637142 63.5087778,56.5834444 C63.5339421,56.6063572 63.5576198,56.6308514 63.5796667,56.6567778 C64.9656259,58.0756134 65.8934533,59.8780428 66.2428889,61.8304444 C66.3906915,62.5832828 66.4643769,63.3487915 66.4628889,64.116 C66.4601964,64.7891047 65.9137767,65.3333387 65.2406667,65.3333333 Z" id="Shape" fill-rule="nonzero"></path>
                    <path d="M58.5018373,55 C58.9558816,54.9888783 59.377674,54.7274804 59.6357179,54.297299 C59.8755728,53.9209465 60.0033279,53.4654357 59.9999341,52.9986864 C60.0007495,52.8882026 59.992698,52.7778683 59.9758821,52.6690893 C59.9640849,51.7504935 59.3183874,51.010115 58.5203288,51.0001026 C57.7222701,50.9900902 57.0627071,51.7140929 57.0335193,52.6321744 C57.0133878,52.7529603 57.0034155,52.8756983 57.0037406,52.9986864 C56.9438054,54.0250529 57.6111284,54.9165325 58.5018373,55 Z" id="Path"></path>
                    <path d="M61.8567895,58.2577619 C61.836197,58.2390455 61.8167825,58.2189899 61.7986644,58.1977174 C61.0564712,57.4308413 60.0497395,57 59,57 C57.9502605,57 56.9435288,57.4308413 56.2013356,58.1977174 C56.1832175,58.2189899 56.163803,58.2390455 56.1432105,58.2577619 C55.0711752,59.383758 54.3578905,60.8213277 54.0989364,62.3778368 C54.0605986,62.5822436 54.0272075,62.790483 54,63 L64,63 C63.9727925,62.7917606 63.9406381,62.5847987 63.9023003,62.3816694 C63.6432635,60.8238025 62.9295558,59.3849126 61.8567895,58.2577619 Z" id="Path"></path>
                    <path d="M59.2489451,44.5654008 C60.6963964,44.5701668 62.133837,44.8056097 63.507173,45.2628692 C64.1977813,43.3592454 64.697839,41.3918056 65,39.3894515 C63.4531544,38.8569708 62.2766393,37.5839446 61.8675105,36 L48.2362869,36 L48.2362869,36.5873418 C48.2420496,37.5003219 47.563801,38.2732098 46.6578059,38.3860759 L44.2227848,38.6919831 L45.7278481,40.6253165 C46.278848,41.3465923 46.2162926,42.3631184 45.5810127,43.0113924 L43.0113924,45.5810127 C42.3656713,46.2220094 41.3447596,46.2848348 40.6253165,45.7278481 L38.6919831,44.2227848 L38.3860759,46.6578059 C38.2732098,47.563801 37.5003219,48.2420496 36.5873418,48.2362869 L36,48.2362869 L36,61.8675105 C37.5809191,62.2772415 38.8499424,63.4543066 39.3772152,65 C41.9020494,64.6173606 44.368689,63.9184794 46.7189873,62.9198312 C45.0930958,58.7791979 45.6210673,54.1023421 48.1291491,50.4283942 C50.6372308,46.7544463 54.8005375,44.5593125 59.2489451,44.5654008 Z" id="Path"></path>
                    <path d="M33,48.2362869 L32.4126582,48.2362869 C31.4996781,48.2420496 30.7267902,47.563801 30.6139241,46.6578059 L30.3080169,44.2227848 L28.3746835,45.7278481 C27.6552404,46.2848348 26.6343287,46.2220094 25.9886076,45.5810127 L23.4189873,43.0113924 C22.7837074,42.3631184 22.721152,41.3465923 23.2721519,40.6253165 L24.7772152,38.6919831 L22.3421941,38.3860759 C21.436199,38.2732098 20.7579504,37.5003219 20.7637131,36.5873418 L20.7637131,36 L7.13248945,36 C6.72336069,37.5839446 5.54684558,38.8569708 4,39.3894515 C4.31797389,41.5362666 4.87196182,43.6414207 5.65189873,45.6666667 C7.33122336,44.936417 9.14345983,44.5614715 10.9746835,44.5654008 C18.4064317,44.5701256 24.4298744,50.5935683 24.4345992,58.0253165 C24.4385285,59.8565402 24.063583,61.6687766 23.3333333,63.3481013 C25.3585793,64.1280382 27.4637334,64.6820261 29.6105485,65 C30.1503699,63.4579581 31.4202666,62.2843351 33,61.8675105 L33,48.2362869 Z" id="Path"></path>
                    <path d="M10.9746835,24.4345992 C9.14345983,24.4385285 7.33122336,24.063583 5.65189873,23.3333333 C4.87196182,25.3585793 4.31797389,27.4637334 4,29.6105485 C5.54684558,30.1430292 6.72336069,31.4160554 7.13248945,33 L20.7637131,33 L20.7637131,32.4126582 C20.7579504,31.4996781 21.436199,30.7267902 22.3421941,30.6139241 L24.7772152,30.3080169 L23.2721519,28.3746835 C22.721152,27.6534077 22.7837074,26.6368816 23.4189873,25.9886076 L25.9886076,23.4189873 C26.6343287,22.7779906 27.6552404,22.7151652 28.3746835,23.2721519 L30.3080169,24.7772152 L30.6139241,22.3421941 C30.7267902,21.436199 31.4996781,20.7579504 32.4126582,20.7637131 L33,20.7637131 L33,7.13248945 C31.4202666,6.71566489 30.1503699,5.54204194 29.6105485,4 C27.4637334,4.31797389 25.3585793,4.87196182 23.3333333,5.65189873 C24.063583,7.33122336 24.4385285,9.14345983 24.4345992,10.9746835 C24.4298744,18.4064317 18.4064317,24.4298744 10.9746835,24.4345992 Z" id="Path"></path>
                    <path d="M36,20.7637131 L36.5873418,20.7637131 C37.5003219,20.7579504 38.2732098,21.436199 38.3860759,22.3421941 L38.6919831,24.7772152 L40.6253165,23.2721519 C41.3465923,22.721152 42.3631184,22.7837074 43.0113924,23.4189873 L45.5810127,25.9886076 C46.2162926,26.6368816 46.278848,27.6534077 45.7278481,28.3746835 L44.2227848,30.3080169 L46.6578059,30.6139241 C47.563801,30.7267902 48.2420496,31.4996781 48.2362869,32.4126582 L48.2362869,33 L61.8675105,33 C62.2766393,31.4160554 63.4531544,30.1430292 65,29.6105485 C64.697839,27.6081944 64.1977813,25.6407546 63.507173,23.7371308 C62.133837,24.1943903 60.6963964,24.4298332 59.2489451,24.4345992 C54.8005375,24.4406875 50.6372308,22.2455537 48.1291491,18.5716058 C45.6210673,14.8976579 45.0930958,10.2208021 46.7189873,6.08016878 C44.368689,5.08152064 41.9020494,4.38263942 39.3772152,4 C38.8499424,5.54569338 37.5809191,6.72275848 36,7.13248945 L36,20.7637131 Z" id="Path"></path>
                </g>
            </g>
        </g>
    </g>
</svg>