<?xml version="1.0" encoding="UTF-8"?>
<svg width="137px" height="129px" viewBox="0 0 137 129" version="1.1" xmlns="http://www.w3.org/2000/svg" xmlns:xlink="http://www.w3.org/1999/xlink">
    <!-- Generator: Sketch 52.5 (67469) - http://www.bohemiancoding.com/sketch -->
    <title>Icon 2</title>
    <desc>Created with Sketch.</desc>
    <g id="Page-1" stroke="none" stroke-width="1" fill="none" fill-rule="evenodd">
        <g id="About" transform="translate(-614.000000, -880.000000)">
            <g id="Icon-2" transform="translate(614.000000, 880.000000)">
                <ellipse id="Oval" fill="#317363" cx="68.5" cy="64.5" rx="68.5" ry="64.5"></ellipse>
                <g id="Group" transform="translate(38.000000, 33.000000)" fill="#FFFFFF" fill-rule="nonzero">
                    <path d="M28.4801122,0.00157349262 C27.8451961,0.0581776624 27.3230674,0.522062576 27.1960843,1.14236734 L26.4752265,4.6765914 C25.9151971,4.87047803 25.3742978,5.09003298 24.8532964,5.3476466 L21.8121775,3.3568495 C21.2388368,2.99347691 20.4877341,3.07738218 20.010033,3.55816606 C18.9198041,4.6435719 17.7280928,5.73176218 16.5859585,6.86870506 C16.0970964,7.35206988 16.0215534,8.11156777 16.405744,8.6805541 L18.4556834,11.7003025 C18.1948987,12.2289866 17.9741381,12.7718864 17.7798792,13.3332035 L14.1530634,14.1161012 C13.4811996,14.2545472 13.0006711,14.8439699 13.0041963,15.5253172 C13.004277,17.096796 13.0042237,18.6287631 13.0041963,20.2003351 C13.011309,20.8732781 13.4894532,21.4504667 14.1530634,21.5871825 L17.7798792,22.3700802 C17.9741389,22.9313973 18.194898,23.4742971 18.4556834,24.0029812 L16.405744,27.0450981 C16.0339733,27.6093144 16.1090329,28.3546356 16.5859585,28.8345787 C17.7280863,29.9714356 18.919714,31.0596903 20.010033,32.1451177 C20.4877341,32.6259015 21.2388368,32.7098068 21.8121775,32.3464342 L24.8758232,30.3780056 C25.3961975,30.6341161 25.9385139,30.8565127 26.4977533,31.0490608 L27.1960843,34.5609164 C27.3261005,35.2369553 27.9221479,35.7254737 28.6152731,35.7240787 L33.390956,35.7240787 C34.0840811,35.7254737 34.6801285,35.2369553 34.8101448,34.5609164 L35.5084758,31.0490608 C36.0677151,30.8565127 36.6100301,30.6341161 37.1304058,30.3780056 L40.1940515,32.3464342 C40.7673922,32.7098068 41.5184949,32.6259015 41.996196,32.1451177 C43.0865151,31.0596903 44.2781435,29.9714356 45.4202706,28.8345787 C45.8971962,28.3546356 45.9722558,27.6093144 45.600485,27.0450981 L43.5505456,24.0029812 C43.8113347,23.4742971 44.0320895,22.9313973 44.2263498,22.3700802 L47.8531656,21.5871825 C48.5167758,21.4504667 48.99492,20.8732781 49.0020328,20.2003351 C49.0020068,18.6287631 49.0019527,17.096796 49.0020328,15.5253172 C49.0055579,14.8439699 48.5250294,14.2545472 47.8531656,14.1161012 L44.2263498,13.3332035 C44.0320902,12.7718864 43.811334,12.2289866 43.5505456,11.7003025 L45.600485,8.6805541 C45.9846757,8.11156777 45.9091327,7.35206988 45.4202706,6.86870506 C44.2781362,5.73176218 43.0864235,4.6435719 41.996196,3.55816606 C41.5184949,3.07738218 40.7673922,2.99347691 40.1940515,3.3568495 L37.1529326,5.3476466 C36.6319298,5.09003298 36.091032,4.87047803 35.5310026,4.6765914 L34.8101448,1.14236734 C34.6707191,0.475224843 34.0771251,-0.00192687123 33.390956,0.00157349262 L28.6152731,0.00157349262 C28.5702442,-0.00052449754 28.5251411,-0.00052449754 28.4801122,0.00157349262 Z M29.8091938,2.86474235 L32.1970353,2.86474235 L32.8277858,5.95159628 C32.9403956,6.48803051 33.351474,6.91358994 33.8865457,7.04765311 C34.8466144,7.29964776 35.7300833,7.69420674 36.5897625,8.18844695 C37.0611352,8.45721814 37.6446703,8.43992159 38.0990585,8.14370994 L40.8022753,6.39896642 C41.3845503,6.96268142 41.9677776,7.50371296 42.5368394,8.05423591 L40.7346948,10.7384567 C40.4292948,11.1853752 40.4031617,11.764914 40.6671144,12.2371467 C41.1489134,13.0614959 41.5573825,14.0174794 41.8159815,14.9661045 C41.9546893,15.4826397 42.3716485,15.8794177 42.8972683,15.9950558 L46.1186016,16.666111 C46.1185893,17.4549283 46.1185864,18.2484914 46.1186016,19.0371727 L42.8972683,19.7305964 C42.3716485,19.8462346 41.9546893,20.2430125 41.8159815,20.7595477 C41.5573825,21.70818 41.1489113,22.6418021 40.6671144,23.466137 C40.3937752,23.9440134 40.4200361,24.5350779 40.7346948,24.9871955 L42.5143125,27.6490478 C41.9451146,28.1995708 41.3844292,28.7629422 40.8022753,29.3266858 L38.0990585,27.5595738 C37.640391,27.2703325 37.0569189,27.2616851 36.5897625,27.5372053 C35.7300833,28.0314455 34.8466079,28.4036431 33.8865457,28.6556306 C33.351474,28.7896938 32.9403956,29.2152532 32.8277858,29.7516874 L32.1970353,32.8609099 L29.8091938,32.8609099 L29.1784432,29.7516874 C29.0658334,29.2152532 28.654755,28.7896938 28.1196833,28.6556306 C27.1596211,28.4036431 26.2761342,28.0314455 25.4164666,27.5372053 C24.9493101,27.2616851 24.3658381,27.2703325 23.9071705,27.5595738 L21.2039538,29.3266858 C20.6217998,28.762978 20.0611152,28.1995779 19.4919165,27.6490478 L21.2715342,24.9871955 C21.5861929,24.5350779 21.6124538,23.9440134 21.3391146,23.466137 C20.8573228,22.6417949 20.4488451,21.70818 20.1902475,20.7595477 C20.0515397,20.2430125 19.6345805,19.8462346 19.1089608,19.7305964 L15.8876275,19.0371727 C15.8876426,18.2484914 15.8876397,17.4549283 15.8876275,16.666111 L19.1089608,15.9950558 C19.6345805,15.8794177 20.0515397,15.4826397 20.1902475,14.9661045 C20.4488451,14.0174794 20.8573199,13.0614959 21.3391146,12.2371467 C21.6030673,11.764914 21.5769342,11.1853752 21.2715342,10.7384567 L19.4693897,8.05423591 C20.0384514,7.50371296 20.6216787,6.96268142 21.2039538,6.39896642 L23.9071705,8.14370994 C24.3615588,8.43992159 24.9450938,8.45721814 25.4164666,8.18844695 C26.2761342,7.69420674 27.1596146,7.29964776 28.1196833,7.04765311 C28.654755,6.91358994 29.0658334,6.48803051 29.1784432,5.95159628 L29.8091938,2.86474235 Z M31.0031145,12.1029356 C27.8213469,12.1029356 25.2137253,14.6922495 25.2137253,17.8516419 C25.2137253,21.0110771 27.8213527,23.6003481 31.0031145,23.6003481 C34.1848807,23.6003481 36.7925037,21.0110771 36.7925037,17.8516419 C36.7925037,14.6922495 34.1848864,12.1029356 31.0031145,12.1029356 Z M31.0031145,14.9661045 C32.613908,14.9661045 33.9090725,16.2522042 33.9090725,17.8516419 C33.9090725,19.4511655 32.6139138,20.7371792 31.0031145,20.7371792 C29.3923224,20.7371792 28.0971565,19.4511655 28.0971565,17.8516419 C28.0971565,16.2522042 29.3923282,14.9661045 31.0031145,14.9661045 Z M57.810014,28.8345787 C56.6806425,28.8345787 55.6594804,29.3393267 54.9265828,30.087215 L54.904056,30.0648465 C54.904056,30.0648465 54.8817959,30.1095835 54.8815292,30.1095835 C54.8491555,30.1417942 52.9044931,32.0531384 50.7816505,34.1582833 C48.6412636,36.2807503 46.4049349,38.4868935 45.7356458,39.2135658 C45.3860209,39.5926301 45.2676012,40.1285825 45.4252959,40.6181702 C45.5829906,41.1077579 45.9926487,41.4760002 46.4989127,41.5832462 C47.0051767,41.6904922 47.5305121,41.520317 47.8756924,41.1372574 C48.3320819,40.6416428 50.6729271,38.3120613 52.809063,36.1938174 C54.945199,34.0755735 56.9314686,32.1003806 56.9314686,32.1003806 C56.9466165,32.0931855 56.9616366,32.0857282 56.9765222,32.0780121 C57.2257826,31.8176069 57.4992558,31.6977475 57.810014,31.6977475 C58.4572189,31.6977475 59.1165688,32.3140446 59.1165688,33.30828 C59.1165688,33.7366816 58.979936,34.1054578 58.7786667,34.3819683 C58.7748462,34.3891262 58.7825593,34.3993263 58.7786667,34.4043368 C58.715743,34.4793519 50.092669,44.7541196 44.5191983,51.2254539 C42.9796104,53.0131449 40.8641306,54.7820465 37.8737904,54.7820465 L20.7759445,54.7820465 C18.9366527,54.7820465 17.0050256,55.113673 15.5046718,56.571527 L11.4273198,60.5307527 C11.0491613,60.8878542 10.8948408,61.4199846 11.0238224,61.9220995 C11.152804,62.4242145 11.544954,62.8179353 12.0491663,62.9515508 C12.5533786,63.0851662 13.0909472,62.9378193 13.4547324,62.5662868 L17.5320844,58.6070611 C18.3544973,57.8079507 19.2260411,57.6452153 20.7759445,57.6452153 L37.8737904,57.6452153 C42.0138282,57.6452153 44.9129323,55.1621321 46.7042985,53.0820399 C52.3236165,46.5574507 61.0313473,36.1714489 61.0313473,36.1714489 C61.0469968,36.1495049 61.0620207,36.1271275 61.0764009,36.1043433 C61.6582766,35.3257046 62,34.3524061 62,33.30828 C62,30.9303467 60.1995783,28.8345787 57.810014,28.8345787 Z M19.784765,39.5043564 C16.7258265,39.5043564 13.5728197,39.9312906 11.0443641,41.9872606 L0.524345589,50.5320302 C-0.091494385,51.0385354 -0.17722194,51.9448677 0.332867735,52.55638 C0.84295741,53.1678924 1.75570373,53.2530175 2.37154371,52.7465123 L12.8690354,44.2017428 C14.6227765,42.7756699 16.9912478,42.3675252 19.784765,42.3675252 L41.0050165,42.3675252 C41.251795,43.0715784 41.2210569,43.9320323 40.7572217,44.783324 C40.1737903,45.8541491 39.1858937,46.440884 38.7072823,46.3938564 C38.6626111,46.3842775 38.6175066,46.3768129 38.5721214,46.3714879 L24.8082428,46.3714879 C24.2882999,46.3641735 23.8046694,46.635421 23.5425483,47.0813613 C23.2804271,47.5273017 23.2804271,48.078843 23.5425483,48.5247834 C23.8046694,48.9707237 24.2882999,49.2419712 24.8082428,49.2346568 L38.4144338,49.2346568 L38.5721214,49.2346568 L38.5721214,49.2122883 C40.6844698,49.3359772 42.3590859,47.8573652 43.3027508,46.1254344 C44.2710935,44.3481939 44.5869517,41.95981 43.1450631,40.0859375 C42.8756145,39.7233563 42.4499827,39.5078924 41.996196,39.5043564 L19.784765,39.5043564 Z" id="Shape"></path>
                </g>
            </g>
        </g>
    </g>
</svg>