<?xml version="1.0" encoding="UTF-8"?>
<svg width="137px" height="129px" viewBox="0 0 137 129" version="1.1" xmlns="http://www.w3.org/2000/svg" xmlns:xlink="http://www.w3.org/1999/xlink">
    <!-- Generator: Sketch 52.5 (67469) - http://www.bohemiancoding.com/sketch -->
    <title>Icon 2</title>
    <desc>Created with Sketch.</desc>
    <g id="Page-1" stroke="none" stroke-width="1" fill="none" fill-rule="evenodd">
        <g id="About" transform="translate(-614.000000, -880.000000)">
            <g id="Icon-2" transform="translate(614.000000, 880.000000)">
                <ellipse id="Oval" fill="#317363" cx="68.5" cy="64.5" rx="68.5" ry="64.5"></ellipse>
                <g id="noun_Direct-Booking_94686" transform="translate(37.000000, 40.000000)" fill="#FFFFFF">
                    <g id="Group">
                        <rect id="Rectangle" x="22.3216" y="8.23703704" width="7.32231111" height="1.83148148"></rect>
                        <rect id="Rectangle" x="35.0790222" y="8.23703704" width="7.32355556" height="1.83148148"></rect>
                        <path d="M10.5690667,14.8438272 C10.5690667,12.2104938 12.7288,10.0679012 15.3832,10.0679012 L16.8864889,10.0679012 L16.8864889,8.23641975 L15.3832,8.23641975 C11.7052444,8.23641975 8.72355556,11.1944444 8.72355556,14.8432099 L8.72355556,30.7493827 L10.5696889,30.7493827 L10.5696889,14.8438272 L10.5690667,14.8438272 Z" id="Path"></path>
                        <path d="M49.3403556,8.23703704 L47.8383111,8.23703704 L47.8383111,10.0685185 L49.3403556,10.0685185 C51.9947556,10.0685185 54.1544889,12.2111111 54.1544889,14.8444444 L54.1544889,42.8641975 C54.1544889,45.4975309 51.9947556,47.6401235 49.3403556,47.6401235 L15.3825778,47.6401235 C12.7281778,47.6401235 10.5684444,45.4975309 10.5684444,42.8641975 L10.5684444,35.004321 L8.72231111,35.004321 L8.72231111,42.862963 C8.72231111,46.5117284 11.704,49.4697531 15.3819556,49.4697531 L49.3391111,49.4697531 C53.0183111,49.4703704 56,46.5123457 56,42.8635802 L56,14.8438272 C56,11.1950617 53.0183111,8.23703704 49.3403556,8.23703704 Z" id="Path"></path>
                        <path d="M19.6410667,17.5574074 L19.5657778,17.5574074 C17.0706667,17.5574074 15.0397333,15.5432099 15.0397333,13.067284 L15.0397333,4.49012346 C15.0397333,2.01481481 17.0700444,-8.8817842e-16 19.5657778,-8.8817842e-16 L19.6410667,-8.8817842e-16 C22.1368,-8.8817842e-16 24.1671111,2.01419753 24.1671111,4.49012346 L24.1671111,13.0679012 C24.1671111,15.5432099 22.1368,17.5574074 19.6410667,17.5574074 Z M19.5657778,1.83148148 C18.088,1.83148148 16.8858667,3.02407407 16.8858667,4.49012346 L16.8858667,13.0679012 C16.8858667,14.5339506 18.088,15.7265432 19.5657778,15.7265432 L19.6410667,15.7265432 C21.1188444,15.7265432 22.3209778,14.5339506 22.3209778,13.0679012 L22.3209778,4.49012346 C22.3209778,3.02407407 21.1188444,1.83148148 19.6410667,1.83148148 L19.5657778,1.83148148 Z" id="Shape" fill-rule="nonzero"></path>
                        <path d="M45.1584,17.5574074 L45.0824889,17.5574074 C42.5873778,17.5574074 40.5564444,15.5432099 40.5564444,13.067284 L40.5564444,4.49012346 C40.5564444,2.01481481 42.5867556,-8.8817842e-16 45.0824889,-8.8817842e-16 L45.1584,-8.8817842e-16 C47.6535111,-8.8817842e-16 49.6844444,2.01419753 49.6844444,4.49012346 L49.6844444,13.0679012 C49.6844444,15.5432099 47.6541333,17.5574074 45.1584,17.5574074 Z M45.0824889,1.83148148 C43.6047111,1.83148148 42.4025778,3.02407407 42.4025778,4.49012346 L42.4025778,13.0679012 C42.4025778,14.5339506 43.6047111,15.7265432 45.0824889,15.7265432 L45.1584,15.7265432 C46.6361778,15.7265432 47.8383111,14.5339506 47.8383111,13.0679012 L47.8383111,4.49012346 C47.8383111,3.02407407 46.6361778,1.83148148 45.1584,1.83148148 L45.0824889,1.83148148 Z" id="Shape" fill-rule="nonzero"></path>
                        <path d="M32.3997333,17.5574074 L32.3244444,17.5574074 C29.8293333,17.5574074 27.7984,15.5432099 27.7984,13.067284 L27.7984,4.49012346 C27.7984,2.01419753 29.8293333,0 32.3244444,0 L32.3997333,0 C34.8954667,0 36.9264,2.01419753 36.9264,4.49012346 L36.9264,13.0679012 C36.9257778,15.5432099 34.8954667,17.5574074 32.3997333,17.5574074 Z M32.3244444,1.83148148 C30.8460444,1.83148148 29.6445333,3.02407407 29.6445333,4.49012346 L29.6445333,13.0679012 C29.6445333,14.5339506 30.8460444,15.7265432 32.3244444,15.7265432 L32.3997333,15.7265432 C33.8781333,15.7265432 35.0802667,14.5339506 35.0802667,13.0679012 L35.0802667,4.49012346 C35.0802667,3.02407407 33.8781333,1.83148148 32.3997333,1.83148148 L32.3244444,1.83148148 Z" id="Shape" fill-rule="nonzero"></path>
                        <path d="M20.6758222,44.7487654 L20.6372444,36.8358025 L0,36.8358025 L0,28.9185185 L20.5986667,28.9185185 L20.5588444,20.7851852 L32.6946667,32.7080247 L20.6758222,44.7487654 Z M22.5001778,40.3185185 L30.0844444,32.7203704 L22.4261333,25.1969136 L22.4261333,30.75 L1.84613333,30.75 L1.84613333,35.0049383 L22.5001778,35.0049383 L22.5001778,40.3185185 Z" id="Shape" fill-rule="nonzero"></path>
                    </g>
                </g>
            </g>
        </g>
    </g>
</svg>