<?xml version="1.0" encoding="UTF-8"?>
<svg width="137px" height="129px" viewBox="0 0 137 129" version="1.1" xmlns="http://www.w3.org/2000/svg" xmlns:xlink="http://www.w3.org/1999/xlink">
    <!-- Generator: Sketch 52.5 (67469) - http://www.bohemiancoding.com/sketch -->
    <title>Icon 2</title>
    <desc>Created with Sketch.</desc>
    <g id="Page-1" stroke="none" stroke-width="1" fill="none" fill-rule="evenodd">
        <g id="About" transform="translate(-614.000000, -880.000000)">
            <g id="Icon-2" transform="translate(614.000000, 880.000000)">
                <ellipse id="Oval" fill="#317363" cx="68.5" cy="64.5" rx="68.5" ry="64.5"></ellipse>
                <g id="noun_Best-price_1016656" transform="translate(35.000000, 31.000000)" fill="#FFFFFF">
                    <path d="M51.8443232,14.5572922 C53.3342761,12.3989562 56.5402749,6.96528043 54.1301235,3.14781543 C52.9680055,1.30797801 50.9727347,0.68114574 50.1214945,0.414600846 C47.5711655,-0.388422117 43.3579223,-0.416657805 37.7768166,3.99488607 C35.8629393,5.50718951 32.3596282,9.39580845 31.7819606,13.9157774 L28.3046502,13.9157774 C28.0163816,13.9157774 27.7382872,14.0264613 27.5280207,14.2229816 L17.3538356,23.8106918 C17.1277425,24.0264125 17,24.3234519 17,24.6340445 L17,65.8705725 C17,66.4951459 17.5053179,67 18.130465,67 L49.7834855,67 C50.4086327,67 50.9139505,66.4951459 50.9139505,65.8705725 L50.9139505,24.6340445 C50.9139505,24.3234519 50.786208,24.0264125 50.560115,23.8118212 L46.4101779,19.9006138 C48.3873612,18.556595 50.283151,16.8195355 51.8443232,14.5572922 Z M48.6530205,25.1219572 L48.6530205,64.741145 L19.26093,64.741145 L19.26093,25.1219572 L28.7534448,16.1757618 L39.1593753,16.1757618 L42.657034,19.4714313 C41.0676002,20.26316 39.5041671,20.8120618 38.1125647,21.1779963 C37.4218505,19.5663032 35.8199816,18.4346168 33.9569753,18.4346168 C31.4631694,18.4346168 29.4351152,20.4608098 29.4351152,22.9523269 C29.4351152,25.443844 31.4631694,27.470037 33.9569753,27.470037 C36.2834723,27.470037 38.181523,25.7013535 38.4290949,23.4424985 C40.2423608,22.9907274 42.3280687,22.2532113 44.4115157,21.1249132 L48.6530205,25.1219572 Z M35.9940732,23.9145992 C35.631194,24.6780922 34.8579559,25.2111819 33.9569753,25.2111819 C32.7100723,25.2111819 31.6960452,24.1980855 31.6960452,22.9523269 C31.6960452,21.7065684 32.7100723,20.6934719 33.9569753,20.6934719 C34.7211696,20.6934719 35.3949268,21.0763478 35.8052856,21.6591324 C35.047874,21.7720752 34.4091613,21.8228994 33.9569753,21.8228994 L33.9569753,24.0817544 C34.4769892,24.0817544 35.1801384,24.0286713 35.9940732,23.9145992 Z M44.7190022,18.308121 L40.3859298,14.2241111 C40.1756633,14.0275907 39.8975689,13.9169068 39.6093003,13.9169068 L34.0688913,13.9169068 C34.6849947,10.0971829 37.8796889,6.79586631 39.1808541,5.76582841 C43.0357398,2.71863298 46.48818,1.64228856 49.444346,2.57067797 C50.1633218,2.79543405 51.4984009,3.21558108 52.2185072,4.35404402 C53.6010659,6.54287454 51.9698048,10.3976107 49.9824473,13.2742625 C48.4924945,15.4325985 46.6419232,17.0713978 44.7190022,18.308121 Z" id="Shape" fill-rule="nonzero"></path>
                    <path d="M33.5004727,32 C27.7930218,32 23.150471,36.77344 23.150471,42.64 C23.150471,45.06704 23.9531712,47.2992 25.2883214,49.0912 L22.0591208,58.52608 C21.9211208,58.92816 22.0292208,59.3728 22.3362709,59.67184 C22.5559209,59.88464 22.850321,60 23.150471,60 C23.271221,60 23.3954211,59.98096 23.5138711,59.94176 L26.5107716,58.9696 L28.3852719,59.88128 C28.6842719,60.02688 29.031572,60.0392 29.339772,59.91376 C29.6479721,59.78832 29.8860221,59.5408 29.9895221,59.23392 L32.0664225,53.16576 C32.5367726,53.23296 33.0128726,53.28 33.5004727,53.28 C33.9880728,53.28 34.4641729,53.23296 34.9333729,53.16576 L37.0102733,59.23392 C37.1149233,59.5408 37.3529733,59.78944 37.6600234,59.91376 C37.9682234,60.03696 38.3143735,60.02576 38.6145235,59.88128 L40.4890238,58.9696 L43.4859243,59.94176 C43.6055244,59.98096 43.7297244,60 43.8504744,60 C44.1506244,60 44.4450245,59.88464 44.6635245,59.67184 C44.9717246,59.37168 45.0786746,58.92816 44.9406746,58.52608 L41.711474,49.0912 C43.0477743,47.2992 43.8504744,45.06704 43.8504744,42.64 C43.8504744,36.77344 39.2079236,32 33.5004727,32 Z M29.8423221,52.5856 L28.2288719,57.3008 L27.1145217,56.75872 C26.9535216,56.6792 26.7775716,56.64 26.6004716,56.64 C26.4785716,56.64 26.3555215,56.65904 26.2370715,56.69824 L24.9686213,57.10928 L27.0696717,50.96944 C27.0984217,50.99296 27.1306217,51.00864 27.1593717,51.03216 C27.5285217,51.32672 27.9160718,51.59664 28.3220219,51.83968 C28.3576719,51.86096 28.3921719,51.88448 28.4278219,51.90576 C28.865972,52.16 29.324822,52.3784 29.7997721,52.56544 C29.8147221,52.57104 29.8273721,52.58 29.8423221,52.5856 Z M31.5949224,50.79248 C31.5926224,50.79248 31.5914724,50.79024 31.5891724,50.79024 C30.8025723,50.58976 30.0619721,50.26832 29.378872,49.84272 C29.348972,49.82368 29.317922,49.80464 29.288022,49.78448 C28.6244719,49.35776 28.0195718,48.83024 27.4917217,48.21088 C26.2267215,46.72576 25.4504714,44.77808 25.4504714,42.64 C25.4504714,38.00768 29.062622,34.24 33.5004727,34.24 C37.9383234,34.24 41.550474,38.00768 41.550474,42.64 C41.550474,44.77808 40.7742239,46.72576 39.5092237,48.20976 C38.9813736,48.83024 38.3764735,49.35776 37.7129234,49.78448 C37.6830234,49.80352 37.6531234,49.82256 37.6220734,49.8416 C36.9401233,50.2672 36.1983731,50.58864 35.411773,50.78912 C35.409473,50.78912 35.408323,50.79136 35.406023,50.79136 C34.7942229,50.94816 34.1582728,51.04 33.5004727,51.04 C32.8426726,51.04 32.2067225,50.94816 31.5949224,50.79248 Z M40.7638739,56.69824 C40.4729238,56.60192 40.1601238,56.62544 39.8852737,56.75872 L38.7709236,57.3008 L37.1574733,52.5856 C37.1724233,52.58 37.1862233,52.57104 37.2000233,52.56544 C37.6749734,52.37728 38.1338235,52.16 38.5719735,51.90464 C38.6076235,51.88336 38.6421235,51.85984 38.6777736,51.83856 C39.0837236,51.59664 39.4712737,51.32672 39.8404237,51.03104 C39.8691737,51.00864 39.9013738,50.99184 39.9301238,50.96832 L42.0311741,57.10816 L40.7638739,56.69824 Z" id="Shape" fill-rule="nonzero"></path>
                    <path d="M35.6666667,47.7083636 C37.0211667,47.2567273 38,46.0567273 38,44.6363636 C38,44.2938182 37.8273333,43.9698182 37.5333333,43.7636364 L33.4465,40.8967273 C33.6331667,40.528 34.0356667,40.2727273 34.5,40.2727273 C35.144,40.2727273 35.6666667,40.7614545 35.6666667,41.3636364 L38,41.3636364 C38,39.9432727 37.0211667,38.7432727 35.6666667,38.2916364 L35.6666667,37 L33.3333333,37 L33.3333333,38.2916364 C31.9788333,38.7432727 31,39.9432727 31,41.3636364 C31,41.7061818 31.1726667,42.0301818 31.4666667,42.2363636 L35.5535,45.1032727 C35.3668333,45.472 34.9643333,45.7272727 34.5,45.7272727 C33.856,45.7272727 33.3333333,45.2385455 33.3333333,44.6363636 L31,44.6363636 C31,46.0567273 31.9788333,47.2567273 33.3333333,47.7083636 L33.3333333,49 L35.6666667,49 L35.6666667,47.7083636 Z" id="Path"></path>
                    <rect id="Rectangle" x="15" y="3" width="2" height="3"></rect>
                    <rect id="Rectangle" x="21" y="9" width="3" height="2"></rect>
                    <rect id="Rectangle" x="15" y="15" width="2" height="3"></rect>
                    <rect id="Rectangle" x="8" y="9" width="3" height="2"></rect>
                    <polygon id="Rectangle" transform="translate(20.399773, 5.800113) rotate(-45.000000) translate(-20.399773, -5.800113) " points="18.7972554 4.66679087 22.0022913 4.66679087 22.0022913 6.9334358 18.7972554 6.9334358"></polygon>
                    <polygon id="Rectangle" transform="translate(20.399773, 14.866667) rotate(-45.000000) translate(-20.399773, -14.866667) " points="19.2664509 13.2641487 21.5330958 13.2641487 21.5330958 16.4691846 19.2664509 16.4691846"></polygon>
                    <polygon id="Rectangle" transform="translate(11.333107, 14.866667) rotate(-45.000000) translate(-11.333107, -14.866667) " points="9.7305887 13.7333442 12.9356246 13.7333442 12.9356246 15.9999891 9.7305887 15.9999891"></polygon>
                    <polygon id="Rectangle" transform="translate(11.333220, 5.800000) rotate(-45.000000) translate(-11.333220, -5.800000) " points="10.1998975 4.19748204 12.4665425 4.19748204 12.4665425 7.40251796 10.1998975 7.40251796"></polygon>
                    <path d="M11.5,28 C9.57033333,28 8,29.5703333 8,31.5 C8,33.4296667 9.57033333,35 11.5,35 C13.4296667,35 15,33.4296667 15,31.5 C15,29.5703333 13.4296667,28 11.5,28 Z M11.5,32.6666667 C10.856,32.6666667 10.3333333,32.144 10.3333333,31.5 C10.3333333,30.856 10.856,30.3333333 11.5,30.3333333 C12.144,30.3333333 12.6666667,30.856 12.6666667,31.5 C12.6666667,32.144 12.144,32.6666667 11.5,32.6666667 Z" id="Shape" fill-rule="nonzero"></path>
                    <rect id="Rectangle" x="0" y="43" width="2" height="2"></rect>
                    <rect id="Rectangle" x="2" y="41" width="2" height="2"></rect>
                    <rect id="Rectangle" x="5" y="43" width="2" height="2"></rect>
                    <rect id="Rectangle" x="2" y="46" width="2" height="2"></rect>
                    <path d="M9.5,53 C7.57033333,53 6,54.5703333 6,56.5 C6,58.4296667 7.57033333,60 9.5,60 C11.4296667,60 13,58.4296667 13,56.5 C13,54.5703333 11.4296667,53 9.5,53 Z M9.5,57.6666667 C8.856,57.6666667 8.33333333,57.144 8.33333333,56.5 C8.33333333,55.856 8.856,55.3333333 9.5,55.3333333 C10.144,55.3333333 10.6666667,55.856 10.6666667,56.5 C10.6666667,57.144 10.144,57.6666667 9.5,57.6666667 Z" id="Shape" fill-rule="nonzero"></path>
                    <path d="M57.5,53 C55.5703333,53 54,54.5703333 54,56.5 C54,58.4296667 55.5703333,60 57.5,60 C59.4296667,60 61,58.4296667 61,56.5 C61,54.5703333 59.4296667,53 57.5,53 Z M57.5,57.6666667 C56.856,57.6666667 56.3333333,57.144 56.3333333,56.5 C56.3333333,55.856 56.856,55.3333333 57.5,55.3333333 C58.144,55.3333333 58.6666667,55.856 58.6666667,56.5 C58.6666667,57.144 58.144,57.6666667 57.5,57.6666667 Z" id="Shape" fill-rule="nonzero"></path>
                    <rect id="Rectangle" x="61" y="44" width="2" height="2"></rect>
                    <rect id="Rectangle" x="64" y="42" width="2" height="2"></rect>
                    <rect id="Rectangle" x="66" y="44" width="2" height="2"></rect>
                    <rect id="Rectangle" x="64" y="47" width="2" height="2"></rect>
                    <path d="M60,31.5 C60,29.5703333 58.4296667,28 56.5,28 C54.5703333,28 53,29.5703333 53,31.5 C53,33.4296667 54.5703333,35 56.5,35 C58.4296667,35 60,33.4296667 60,31.5 Z M55.3333333,31.5 C55.3333333,30.856 55.856,30.3333333 56.5,30.3333333 C57.144,30.3333333 57.6666667,30.856 57.6666667,31.5 C57.6666667,32.144 57.144,32.6666667 56.5,32.6666667 C55.856,32.6666667 55.3333333,32.144 55.3333333,31.5 Z" id="Shape" fill-rule="nonzero"></path>
                    <rect id="Rectangle" x="61" y="17" width="2" height="2"></rect>
                    <rect id="Rectangle" x="64" y="15" width="2" height="2"></rect>
                    <rect id="Rectangle" x="66" y="17" width="2" height="2"></rect>
                    <rect id="Rectangle" x="64" y="20" width="2" height="2"></rect>
                </g>
            </g>
        </g>
    </g>
</svg>