<?xml version="1.0" encoding="UTF-8"?>
<svg width="137px" height="129px" viewBox="0 0 137 129" version="1.1" xmlns="http://www.w3.org/2000/svg" xmlns:xlink="http://www.w3.org/1999/xlink">
    <!-- Generator: Sketch 52.5 (67469) - http://www.bohemiancoding.com/sketch -->
    <title>Icon 2</title>
    <desc>Created with Sketch.</desc>
    <g id="Page-1" stroke="none" stroke-width="1" fill="none" fill-rule="evenodd">
        <g id="About" transform="translate(-614.000000, -880.000000)">
            <g id="Icon-2" transform="translate(614.000000, 880.000000)">
                <ellipse id="Oval" fill="#317363" cx="68.5" cy="64.5" rx="68.5" ry="64.5"></ellipse>
                <g id="Group" transform="translate(29.000000, 24.000000)" fill="#FFFFFF" fill-rule="nonzero">
                    <path d="M82,0 L56.4754392,6.38264708 L65.9384043,9.53522969 L63.215396,12.2588726 C56.8528049,7.33908337 49.0597821,4.61296102 41.0010909,4.60862203 C32.9423378,4.60862203 25.1490051,7.33908337 18.7856081,12.2607322 L16.0614841,9.53708925 L25.525379,6.38388679 L0,0.00185956504 L0.33152765,1.32772944 L6.38132305,25.5274891 L9.5351282,16.062303 L12.2709674,18.7995827 C7.34785772,25.1580555 4.61644427,32.945294 4.60518157,41.0009298 C4.615905,49.0565655 7.34705191,56.8456637 12.2700376,63.2041364 L9.5351282,65.9401764 L6.38132305,56.4743705 L0,82 L25.5240773,75.6173529 L16.0614841,72.4635306 L18.7842445,69.7411274 C25.1478274,74.6627762 32.9410361,77.3888985 40.9997273,77.3932375 C49.0555051,77.3808404 56.8433212,74.6509989 63.2023791,69.7274906 L65.9384043,72.4635306 L56.4754392,75.6173529 L82,82 L75.6186274,56.4743705 L72.4635825,65.9395566 L69.7411941,63.2140541 C74.6621963,56.8506225 77.3889236,49.0584251 77.3932626,41.0003099 C77.3808656,32.9446742 74.6516588,25.1561959 69.7287971,18.7977232 L72.4648222,16.0604434 L75.6186274,25.5256295 L82,0 Z M2.2540533,2.25627225 L19.6623263,6.60951402 L13.0253268,8.82053685 L18.6235169,14.4184475 L19.1958879,13.9560356 C25.370912,8.97302119 33.0653783,6.25371724 40.9997273,6.2487584 C48.93482,6.2487584 56.6294104,8.97302119 62.8050542,13.9560356 L63.3777972,14.4184475 L68.9756773,8.82053685 L62.3389258,6.60951402 L79.7468393,2.25627225 L75.3948609,19.6655202 L73.1813707,13.0262531 L67.5729531,18.6371807 L68.0359822,19.2111665 C73.0208291,25.3818231 75.7438374,33.0711246 75.7543749,41.0027893 C75.7543749,48.9375534 73.0307468,56.6311938 68.0483793,62.8068093 L67.5847302,63.3789355 L73.1813707,68.9780859 L75.3948609,62.3388188 L79.7468393,79.7480667 L62.3389258,75.394825 L68.9756773,73.184422 L63.3654001,67.5734944 L62.7920374,68.0365261 C56.6215382,73.0207803 48.9326505,75.745043 41.0010909,75.7568203 C33.0658742,75.7568203 25.3714078,73.0325575 19.1958879,68.049543 L18.6222152,67.5858915 L13.0253268,73.184422 L19.6623263,75.394825 L2.2540533,79.7480667 L6.60651515,62.3400585 L8.81826978,68.9780859 L14.428299,63.3671583 L13.964774,62.7944122 C8.98005106,56.6237556 6.25636096,48.9338343 6.24582348,41.0015496 C6.25698081,33.069265 8.9815387,25.3805834 13.9660757,19.2105466 L14.428299,18.6371807 L8.81826978,13.0256333 L6.60651515,19.6636606 L2.2540533,2.25627225 Z M41.155372,16.400124 C41.155372,16.400124 33.568016,16.2910295 28.9802461,20.3021113 C24.4249564,24.28344 23.9425878,30.8904746 23.9425878,30.8904746 C23.9416253,30.9133992 23.9416253,30.936354 23.9425878,30.9592785 C23.9425878,30.9592785 23.9363893,33.659367 24.4874374,36.4053247 C24.5628734,36.7821966 24.4403287,37.2154752 24.0841619,37.7597079 C23.7281192,38.3039406 23.1571738,38.900861 22.5455042,39.4798056 C21.9335867,40.05937 21.284788,40.6221984 20.7549388,41.1788282 C20.2248417,41.735458 19.7112326,42.2635744 19.7112326,43.1158751 C19.7112326,43.7853185 20.0954786,44.3469072 20.5030311,44.6859678 C20.9107075,45.0250285 21.3548312,45.2345395 21.7514123,45.4328931 C22.1479314,45.6312467 22.496102,45.8178231 22.6834212,45.9740266 C22.8706784,46.13023 22.884625,46.1618426 22.884625,46.2851938 C22.884625,46.9868697 22.7896638,47.2062983 22.7065417,47.3724195 C22.6650116,47.45548 22.6071175,47.5379208 22.5249871,47.7015625 C22.4426708,47.8658241 22.3553957,48.1286426 22.3553957,48.3976597 C22.3553957,48.8036647 22.6061877,49.1675196 22.8154496,49.3423187 C23.0247115,49.516498 23.2050883,49.5945997 23.3373027,49.6603043 C23.3459806,49.6603043 23.3435012,49.6603043 23.3503196,49.6665029 C23.3168476,49.8003916 23.2895741,49.93552 23.2075058,50.1400721 C23.0892381,50.4351231 22.9713423,50.6725276 22.9713423,50.6725276 C22.7916166,51.0319003 22.8987352,51.4685645 23.2243657,51.7039663 C23.2243657,51.7039663 23.5859872,51.9680246 23.9313685,52.37217 C24.2766259,52.7769353 24.5127894,53.2610421 24.4762181,53.5914248 C24.4167123,54.1282193 24.1501761,54.6228636 24.0850917,55.3902441 C24.0201313,56.1582444 24.3480948,57.0700512 25.2401233,57.9607828 C25.8623303,58.5824974 26.7012376,58.7548171 27.5425622,58.8106041 C28.3840108,58.866391 29.2852131,58.7920084 30.1769317,58.7269236 C31.9604308,58.5948945 33.6632252,58.6029526 34.3185944,59.0938778 C35.114174,59.6901783 35.9182455,61.1697722 36.4240444,62.4956421 C36.9296574,63.8221318 37.1832387,64.9570864 37.1832387,64.9570864 C37.266832,65.3318437 37.599254,65.5984318 37.9832193,65.5986363 L56.4940967,65.5986363 C56.773701,65.5986186 57.0340295,65.4561459 57.1847619,65.2206488 C57.3354943,64.9851517 57.3558575,64.689085 57.2387865,64.4351685 C57.2387865,64.4351685 56.4632281,62.7553614 55.7518244,60.6230601 C55.0403587,58.490139 54.4405902,55.87807 54.6624971,54.3265729 C55.1494526,50.9210894 57.7178698,46.7197121 57.7178698,46.7197121 C57.7618793,46.6639252 58.6443001,45.5295905 59.6356908,43.9452411 C60.6513797,42.321221 61.7587447,40.3184694 62.0630918,38.4923765 C62.617859,35.1625154 62.0630918,32.3762671 61.5207216,30.2328085 C60.967566,28.0230253 59.3083472,23.0406307 54.3039749,19.7064306 C49.1922444,16.3040464 41.15531,16.400124 41.15531,16.400124 L41.155372,16.400124 Z M41.155372,18.0408802 C41.1640499,18.0408802 48.985152,18.1375776 53.3923591,21.0719712 C57.9076064,24.0801276 59.4213461,28.6087883 59.927455,30.6313752 C60.4481923,32.7116087 60.9433298,35.2139634 60.4419318,38.2233595 C60.2176075,39.567825 59.2101007,41.5284264 58.2422023,43.0755845 C57.274428,44.6227426 56.3729157,45.7812517 56.3729157,45.7812517 C56.3556159,45.8035457 56.3394783,45.8267177 56.3245673,45.8506754 C56.3245673,45.8506754 53.60596,50.1047404 53.0352006,54.095367 C52.7281881,56.2425447 53.4496334,58.9153596 54.1925876,61.1424986 C54.7183458,62.7187899 55.0096141,63.312611 55.2918945,63.9609794 L38.5825538,63.9609794 C38.4825098,63.5543545 38.3732919,63.0144608 37.9529705,61.9123585 C37.4009306,60.4643772 36.6192977,58.772173 35.2994476,57.7828844 C33.8393251,56.6888403 31.8401176,56.9603368 30.0536432,57.0929858 C29.160375,57.1586904 28.3106823,57.2188164 27.6480609,57.1748067 C26.9853775,57.1314168 26.5672876,56.9733538 26.3962705,56.8022738 C25.7023466,56.1092759 25.688276,55.8681523 25.7167892,55.5297115 C25.7453024,55.1912706 26.0085533,54.6272026 26.1032047,53.7730424 C26.2197988,52.7155697 25.6620563,51.8793853 25.1757827,51.3091187 C24.9353422,51.0277045 24.8715595,51.0103486 24.6844263,50.8479465 C24.7055012,50.7983581 24.7061211,50.8045567 24.7278159,50.7512492 C24.8741009,50.3861546 25.0510685,49.995026 25.0510685,49.4569919 C25.0510685,49.0516067 24.8003385,48.6877518 24.5910766,48.5129527 C24.3976829,48.3511705 24.238319,48.2805071 24.1093899,48.2172819 C24.1348038,48.173892 24.1403825,48.1676935 24.1707552,48.105708 C24.3521238,47.7437126 24.5218392,47.169107 24.5218392,46.2851938 C24.5218392,45.6151305 24.1377791,45.0535419 23.7300407,44.7138613 C23.3223643,44.3741808 22.8789224,44.1640499 22.4821554,43.9656963 C22.0853264,43.7673427 21.7361639,43.5813862 21.5486588,43.4258026 C21.3614016,43.2695991 21.3489426,43.2379865 21.3487567,43.1158751 C21.3487567,43.171662 21.4957235,42.7768144 21.9408389,42.3094437 C22.3858924,41.842073 23.026695,41.2811042 23.6708449,40.6711669 C24.3150567,40.0612296 24.9674505,39.4023237 25.454406,38.6578778 C25.9411135,37.9140518 26.2811021,37.0270393 26.0920474,36.0830001 C25.5914552,33.5818851 25.5814756,31.0838694 25.5811656,31.0076272 C25.5873642,30.9766345 26.1637022,24.9417261 30.0595318,21.5368625 C33.9311251,18.1518342 41.1445866,18.0408802 41.1535744,18.0408802 L41.155372,18.0408802 Z" id="Shape"></path>
                </g>
            </g>
        </g>
    </g>
</svg>