<?xml version="1.0" encoding="UTF-8"?>
<svg width="137px" height="129px" viewBox="0 0 137 129" version="1.1" xmlns="http://www.w3.org/2000/svg" xmlns:xlink="http://www.w3.org/1999/xlink">
    <!-- Generator: Sketch 52.5 (67469) - http://www.bohemiancoding.com/sketch -->
    <title>Icon 3</title>
    <desc>Created with Sketch.</desc>
    <g id="Page-1" stroke="none" stroke-width="1" fill="none" fill-rule="evenodd">
        <g id="About" transform="translate(-1025.000000, -880.000000)">
            <g id="Icon-3" transform="translate(1025.000000, 880.000000)">
                <ellipse id="Oval" fill="#317363" cx="68.5" cy="64.5" rx="68.5" ry="64.5"></ellipse>
                <g id="Group" transform="translate(38.000000, 34.000000)" fill="#FFFFFF">
                    <path d="M48.171,45 C47.149,45 46.188,45.398 45.464,46.121 L44.542,47.044 L44.34,46.238 C44.01,44.92 42.832,44 41.474,44 C40.162,44 38.994,44.881 38.634,46.143 L37.246,51 L31.123,51 L28.51,50.348 C28.21,50.273 28,50.003 28,49.694 C28,49.513 28.07,49.344 28.197,49.217 L31.878,45.535 C32.602,44.812 33,43.852 33,42.828 C33,40.718 31.283,39 29.171,39 C28.149,39 27.188,39.398 26.464,40.121 L18.172,48.414 C17.793,48.792 17.291,49 16.757,49 L10,49 L10,48 C10,46.897 9.103,46 8,46 L2,46 C0.897,46 0,46.897 0,48 L0,60 C0,61.103 0.897,62 2,62 L8,62 C9.103,62 10,61.103 10,60 L32.279,60 C32.819,60 33.361,59.951 33.889,59.854 L42.642,58.263 C43.848,58.043 44.943,57.47 45.811,56.602 L50.877,51.535 C51.602,50.812 52,49.852 52,48.828 C52,46.718 50.283,45 48.171,45 Z M8,60 L6,60 L6,57 L4,57 L4,60 L2,60 L2,48 L4,48 L4,55 L6,55 L6,48 L8,48 L8,60 Z M40.557,46.691 C40.673,46.284 41.05,46 41.474,46 C41.912,46 42.293,46.298 42.4,46.723 L42.893,48.694 L40.879,50.708 C40.69,50.896 40.438,51 40.171,51 L39.325,51 L40.557,46.691 Z M49.464,50.121 L44.397,55.188 C43.818,55.766 43.087,56.149 42.284,56.295 L33.53,57.887 C33.12,57.962 32.699,58 32.279,58 L10,58 L10,51 L16.757,51 C17.825,51 18.829,50.584 19.586,49.828 L27.878,41.535 C28.224,41.19 28.683,41 29.171,41 C30.18,41 31,41.82 31,42.828 C31,43.309 30.805,43.78 30.464,44.121 L26.783,47.802 C26.278,48.307 26,48.979 26,49.693 C26,50.922 26.833,51.989 28.025,52.287 L30.757,52.97 L40.171,53 C40.972,53 41.726,52.688 42.293,52.121 L46.878,47.535 C47.224,47.19 47.683,47 48.171,47 C49.18,47 50,47.82 50,48.828 C50,49.31 49.805,49.78 49.464,50.121 Z" id="Shape" fill-rule="nonzero"></path>
                    <path d="M60,6 L58,6 C56.897,6 56,6.897 56,8 L52.56,8 C52.281,8 52.004,7.961 51.736,7.884 L45.815,6.194 C45.368,6.065 44.905,6 44.44,6 L42,6 L42,0 L0,0 L0,26 L31,26 L31,33 L27.586,33 L35,40.414 L42.414,33 L39,33 L39,26 L42,26 L42,22.877 L42.96,23.262 C45.669,24.345 48.763,24.237 51.477,22.88 C52.626,22.304 53.915,22 55.203,22 L56,22 C56,23.103 56.897,24 58,24 L60,24 C61.103,24 62,23.103 62,22 L62,8 C62,6.897 61.103,6 60,6 Z M37.586,35 L35,37.586 L32.414,35 L33,35 L33,26 L37,26 L37,35 L37.586,35 Z M40,24 L21,24 L2,24 L2,2 L21,2 L40,2 L40,15 L33,15 C32.573,15 32.165,15.07 31.768,15.172 C31.913,14.46 32,13.737 32,13 C32,6.935 27.065,2 21,2 C14.935,2 10,6.935 10,13 C10,19.065 14.935,24 21,24 C23.755,24 26.37,22.963 28.372,21.153 C28.734,21.664 29.327,22 30,22 L38.203,22 C38.811,22 39.412,22.065 40,22.195 L40,24 Z M21,22 C16.038,22 12,17.963 12,13 C12,8.037 16.038,4 21,4 C25.962,4 30,8.037 30,13 C30,14.367 29.689,15.689 29.082,16.932 C28.787,17.308 28.538,17.717 28.359,18.168 C26.67,20.566 23.93,22 21,22 Z M55.203,20 C53.606,20 52.008,20.377 50.522,21.12 C48.422,22.172 45.886,22.278 43.703,21.404 L42.039,20.738 C40.813,20.248 39.523,20 38.203,20 L30,20 C30,18.346 31.346,17 33,17 L42,17 L42,8 L44.44,8 C44.719,8 44.996,8.039 45.264,8.116 L51.185,9.806 C51.632,9.935 52.095,10 52.56,10 L56,10 L56,20 L55.203,20 Z M58,22 L58,8 L60,8 L60.001,22 L58,22 Z" id="Shape" fill-rule="nonzero"></path>
                    <path d="M20,10 L22,10 C22.551,10 23,10.448 23,11 L25,11 C25,9.346 23.654,8 22,8 L22,6 L20,6 L20,8 C18.346,8 17,9.346 17,11 C17,12.654 18.346,14 20,14 L22,14 C22.551,14 23,14.448 23,15 C23,15.552 22.551,16 22,16 L20,16 C19.449,16 19,15.552 19,15 L17,15 C17,16.654 18.346,18 20,18 L20,20 L22,20 L22,18 C23.654,18 25,16.654 25,15 C25,13.346 23.654,12 22,12 L20,12 C19.449,12 19,11.552 19,11 C19,10.448 19.449,10 20,10 Z" id="Path"></path>
                    <polygon id="Path" points="36 8 38 8 38 4 34 4 34 6 36 6"></polygon>
                    <polygon id="Path" points="4 8 6 8 6 6 8 6 8 4 4 4"></polygon>
                    <polygon id="Path" points="6 18 4 18 4 22 8 22 8 20 6 20"></polygon>
                    <rect id="Rectangle" x="50" y="34" width="2" height="7"></rect>
                    <rect id="Rectangle" x="50" y="30" width="2" height="2"></rect>
                    <rect id="Rectangle" x="50" y="26" width="2" height="2"></rect>
                    <rect id="Rectangle" x="46" y="34" width="2" height="8"></rect>
                    <rect id="Rectangle" x="46" y="30" width="2" height="2"></rect>
                </g>
            </g>
        </g>
    </g>
</svg>