<?xml version="1.0" encoding="UTF-8"?>
<svg width="137px" height="129px" viewBox="0 0 137 129" version="1.1" xmlns="http://www.w3.org/2000/svg" xmlns:xlink="http://www.w3.org/1999/xlink">
    <!-- Generator: Sketch 52.5 (67469) - http://www.bohemiancoding.com/sketch -->
    <title>Icon 1</title>
    <desc>Created with Sketch.</desc>
    <g id="Page-1" stroke="none" stroke-width="1" fill="none" fill-rule="evenodd">
        <g id="About" transform="translate(-203.000000, -880.000000)">
            <g id="Icon-1" transform="translate(203.000000, 880.000000)">
                <ellipse id="Oval" fill="#317363" cx="68.5" cy="64.5" rx="68.5" ry="64.5"></ellipse>
                <g id="noun_cancun-temple_2515758" transform="translate(33.000000, 34.000000)" fill="#FFFFFF">
                    <path d="M39.3677555,13 L34.6322445,13 C34.2830655,13 34,12.7388328 34,12.4166667 L34,6.58333333 C34,6.26116723 34.2830655,6 34.6322445,6 L39.3677555,6 C39.7169345,6 40,6.26116723 40,6.58333333 L40,12.4166667 C40,12.7388328 39.7169345,13 39.3677555,13 Z M35.2644889,11.8333333 L38.7355111,11.8333333 L38.7355111,7.16666667 L35.2644889,7.16666667 L35.2644889,11.8333333 Z" id="Shape" fill-rule="nonzero"></path>
                    <path d="M46.3735575,47 L28.6264425,47 C28.2804678,47 28,46.7146493 28,46.3626514 L28,37.6373486 C28,37.2853507 28.2804678,37 28.6264425,37 L46.3735575,37 C46.7195322,37 47,37.2853507 47,37.6373486 L47,46.3626514 C47,46.7146493 46.7195322,47 46.3735575,47 Z M29.2528849,45.7253027 L45.7471151,45.7253027 L45.7471151,38.2746973 L29.2528849,38.2746973 L29.2528849,45.7253027 Z" id="Shape" fill-rule="nonzero"></path>
                    <path d="M44.3697479,38 L30.6302521,38 C30.2821735,38 30,37.7087084 30,37.3493819 L30,28.6506181 C30,28.2912916 30.2821735,28 30.6302521,28 L44.3697479,28 C44.7178265,28 45,28.2912916 45,28.6506181 L45,37.3493819 C45,37.7087084 44.7178265,38 44.3697479,38 Z M31.2668067,36.6987638 L43.7394958,36.6987638 L43.7394958,29.3012362 L31.2605042,29.3012362 L31.2668067,36.6987638 Z" id="Shape" fill-rule="nonzero"></path>
                    <path d="M42.3634259,30 L32.6365741,30 C32.2850039,30 32,29.7081387 32,29.3481095 L32,20.6518905 C32,20.2918613 32.2850039,20 32.6365741,20 L42.3634259,20 C42.7149961,20 43,20.2918613 43,20.6518905 L43,29.3481095 C43,29.7081387 42.7149961,30 42.3634259,30 Z M33.2731481,28.696219 L41.7268519,28.696219 L41.7268519,21.303781 L33.2731481,21.303781 L33.2731481,28.696219 Z" id="Shape" fill-rule="nonzero"></path>
                    <path d="M40.4087838,22 L34.5912162,22 C34.2646965,22 34,21.7092758 34,21.3506494 L34,12.6493506 C34,12.2907242 34.2646965,12 34.5912162,12 L40.4087838,12 C40.7353035,12 41,12.2907242 41,12.6493506 L41,21.3506494 C41,21.7092758 40.7353035,22 40.4087838,22 Z M35.1824324,20.7012987 L39.8175676,20.7012987 L39.8175676,13.2987013 L35.1824324,13.2987013 L35.1824324,20.7012987 Z" id="Shape" fill-rule="nonzero"></path>
                    <path d="M68.3745113,52 C68.0290635,52 67.7490227,51.7272247 67.7490227,51.3907392 L67.7490227,38.2185215 L6.25097733,38.2185215 L6.25097733,51.3907392 C6.25097733,51.7272247 5.97093651,52 5.62548866,52 C5.28004081,52 5,51.7272247 5,51.3907392 L5,37.6092608 C5,37.2727753 5.28004081,37 5.62548866,37 L68.3745113,37 C68.7199592,37 69,37.2727753 69,37.6092608 L69,51.3907392 C69,51.7272247 68.7199592,52 68.3745113,52 Z" id="Path"></path>
                    <path d="M62.3752253,38 C62.0301717,38 61.7504506,37.7087084 61.7504506,37.3493819 L61.7504506,29.3012362 L12.2495494,29.3012362 L12.2495494,37.3493819 C12.2495494,37.7087084 11.9698283,38 11.6247747,38 C11.2797212,38 11,37.7087084 11,37.3493819 L11,28.6506181 C11,28.2912916 11.2797212,28 11.6247747,28 L62.3752253,28 C62.7202788,28 63,28.2912916 63,28.6506181 L63,37.3493819 C63,37.7087084 62.7202788,38 62.3752253,38 Z" id="Path"></path>
                    <path d="M57.3686109,30 C57.0199044,30 56.7372219,29.7081387 56.7372219,29.3481095 L56.7372219,21.303781 L17.2627781,21.303781 L17.2627781,29.3481095 C17.2627781,29.7081387 16.9800956,30 16.6313891,30 C16.2826825,30 16,29.7081387 16,29.3481095 L16,20.6518905 C16,20.2918613 16.2826825,20 16.6313891,20 L57.3686109,20 C57.7173175,20 58,20.2918613 58,20.6518905 L58,29.3481095 C58,29.7081387 57.7173175,30 57.3686109,30 Z" id="Path"></path>
                    <path d="M53.3640393,22 C53.0128079,22 52.7280786,21.7092758 52.7280786,21.3506494 L52.7280786,13.2987013 L22.2719214,13.2987013 L22.2719214,21.3506494 C22.2719214,21.7092758 21.9871921,22 21.6359607,22 C21.2847293,22 21,21.7092758 21,21.3506494 L21,12.6493506 C21,12.2907242 21.2847293,12 21.6359607,12 L53.3640393,12 C53.7152707,12 54,12.2907242 54,12.6493506 L54,21.3506494 C54,21.7092758 53.7152707,22 53.3640393,22 Z" id="Path"></path>
                    <path d="M48.3642897,13 C48.0131965,13 47.7285793,12.720178 47.7285793,12.375 L47.7285793,7.25 L27.2714207,7.25 L27.2714207,12.375 C27.2714207,12.720178 26.9868035,13 26.6357103,13 C26.2846172,13 26,12.720178 26,12.375 L26,6.625 C26,6.27982203 26.2846172,6 26.6357103,6 L48.3642897,6 C48.7153828,6 49,6.27982203 49,6.625 L49,12.375 C49,12.720178 48.7153828,13 48.3642897,13 Z" id="Path"></path>
                    <path d="M40.3594876,7 C40.0057424,7 39.7189752,6.7150903 39.7189752,6.36363636 L39.7189752,1.27272727 L34.2810248,1.27272727 L34.2810248,6.36363636 C34.2810248,6.7150903 33.9942576,7 33.6405124,7 C33.2867672,7 33,6.7150903 33,6.36363636 L33,0.636363636 C33,0.284909705 33.2867672,0 33.6405124,0 L40.3594876,0 C40.7132328,0 41,0.284909705 41,0.636363636 L41,6.36363636 C41,6.7150903 40.7132328,7 40.3594876,7 Z" id="Path"></path>
                    <path d="M43.4999404,38 C43.4346095,37.9992103 43.370067,37.9856262 43.309963,37.9600158 C43.2499615,37.9341666 43.1956099,37.8968103 43.1499821,37.8500594 C43.1017347,37.8057126 43.0641359,37.7510385 43.0399952,37.6901228 C43.0143778,37.6300355 43.0007899,37.5655108 43,37.5001981 C43.0001289,37.4332007 43.0137301,37.366913 43.0399952,37.3052754 C43.0641359,37.2443596 43.1017347,37.1896856 43.1499821,37.1453387 C43.3449776,36.9515538 43.6599026,36.9515538 43.8548981,37.1453387 C43.9000029,37.1923276 43.9371515,37.2463469 43.9648849,37.3052754 C43.9894384,37.3672656 44.0013372,37.4335407 43.9998808,37.5001981 C44.0006771,37.5651788 43.98879,37.6296911 43.9648849,37.6901228 C43.9390286,37.7501078 43.9016618,37.8044443 43.8548981,37.8500594 C43.7613735,37.9454494 43.6335474,37.9994455 43.4999404,38 Z" id="Path"></path>
                    <path d="M43.4999404,38 C43.4346095,37.9992103 43.370067,37.9856262 43.309963,37.9600158 C43.2499615,37.9341666 43.1956099,37.8968103 43.1499821,37.8500594 C43.1017347,37.8057126 43.0641359,37.7510385 43.0399952,37.6901228 C43.0143778,37.6300355 43.0007899,37.5655108 43,37.5001981 C43.0001289,37.4332007 43.0137301,37.366913 43.0399952,37.3052754 C43.0641359,37.2443596 43.1017347,37.1896856 43.1499821,37.1453387 C43.3449776,36.9515538 43.6599026,36.9515538 43.8548981,37.1453387 C43.9000029,37.1923276 43.9371515,37.2463469 43.9648849,37.3052754 C43.9894384,37.3672656 44.0013372,37.4335407 43.9998808,37.5001981 C44.0006771,37.5651788 43.98879,37.6296911 43.9648849,37.6901228 C43.9390286,37.7501078 43.9016618,37.8044443 43.8548981,37.8500594 C43.7613735,37.9454494 43.6335474,37.9994455 43.4999404,38 Z" id="Path"></path>
                    <path d="M28.5,47 C28.2238576,47 28,46.7195938 28,46.3736952 L28,38.6263048 C28,38.2804062 28.2238576,38 28.5,38 C28.7761424,38 29,38.2804062 29,38.6263048 L29,46.3736952 C29,46.7195938 28.7761424,47 28.5,47 Z" id="Path"></path>
                    <path d="M30.5,38 C30.2238576,38 30,37.7193985 30,37.3732591 L30,29.6267409 C30,29.2806015 30.2238576,29 30.5,29 C30.7761424,29 31,29.2806015 31,29.6267409 L31,37.3732591 C31,37.7193985 30.7761424,38 30.5,38 Z" id="Path"></path>
                    <path d="M32.5,30 C32.2238576,30 32,29.7190072 32,29.3723849 L32,21.6276151 C32,21.2809928 32.2238576,21 32.5,21 C32.7761424,21 33,21.2809928 33,21.6276151 L33,29.3723849 C33,29.7190072 32.7761424,30 32.5,30 Z" id="Path"></path>
                    <path d="M34.5,22 C34.2238576,22 34,21.720178 34,21.375 L34,13.625 C34,13.279822 34.2238576,13 34.5,13 C34.7761424,13 35,13.279822 35,13.625 L35,21.375 C35,21.720178 34.7761424,22 34.5,22 Z" id="Path"></path>
                    <path d="M34.5,13 C34.2238576,13 34,12.7150903 34,12.3636364 L34,6.63636364 C34,6.2849097 34.2238576,6 34.5,6 C34.7761424,6 35,6.2849097 35,6.63636364 L35,12.3636364 C35,12.7150903 34.7761424,13 34.5,13 Z" id="Path"></path>
                    <path d="M45.5,47 C45.2238576,47 45,46.7195938 45,46.3736952 L45,38.6263048 C45,38.2804062 45.2238576,38 45.5,38 C45.7761424,38 46,38.2804062 46,38.6263048 L46,46.3736952 C46,46.7195938 45.7761424,47 45.5,47 Z" id="Path"></path>
                    <path d="M43.5,38 C43.2238576,38 43,37.7193985 43,37.3732591 L43,29.6267409 C43,29.2806015 43.2238576,29 43.5,29 C43.7761424,29 44,29.2806015 44,29.6267409 L44,37.3732591 C44,37.7193985 43.7761424,38 43.5,38 Z" id="Path"></path>
                    <path d="M41.5,30 C41.2238576,30 41,29.7190072 41,29.3723849 L41,21.6276151 C41,21.2809928 41.2238576,21 41.5,21 C41.7761424,21 42,21.2809928 42,21.6276151 L42,29.3723849 C42,29.7190072 41.7761424,30 41.5,30 Z" id="Path"></path>
                    <path d="M40.5,22 C40.2238576,22 40,21.720178 40,21.375 L40,13.625 C40,13.279822 40.2238576,13 40.5,13 C40.7761424,13 41,13.279822 41,13.625 L41,21.375 C41,21.720178 40.7761424,22 40.5,22 Z" id="Path"></path>
                    <path d="M39.5,13 C39.2238576,13 39,12.7150903 39,12.3636364 L39,6.63636364 C39,6.2849097 39.2238576,6 39.5,6 C39.7761424,6 40,6.2849097 40,6.63636364 L40,12.3636364 C40,12.7150903 39.7761424,13 39.5,13 Z" id="Path"></path>
                    <path d="M72.3823077,55.9999302 C72.2627552,55.9996484 72.1458087,55.9681299 72.0453846,55.9091255 C69.3188034,55.3926742 28.0145299,55.6764387 0.636410256,55.9999302 C0.468412133,56.0023257 0.306452169,55.9429889 0.187179487,55.8353468 C0.0680986143,55.7291783 0.000692204992,55.584071 0,55.4324012 L0,51.567529 C0,51.2540914 0.279343703,51 0.623931624,51 L72.3760684,51 C72.7206563,51 73,51.2540914 73,51.567529 L73,55.4380765 C72.9966193,55.747097 72.7220396,55.9968551 72.3823077,55.9999302 Z M1.25410256,52.1350579 L1.25410256,54.8648723 C4.5734188,54.8251452 20.4150427,54.6548865 36.1568376,54.5584066 C62.0936752,54.4051738 69.5122222,54.5584066 71.7583761,54.7683923 L71.7583761,52.1350579 L1.25410256,52.1350579 Z" id="Shape" fill-rule="nonzero"></path>
                    <path d="M64.3939394,42 L51.6060606,42 C51.2713426,42 51,41.7761424 51,41.5 C51,41.2238576 51.2713426,41 51.6060606,41 L64.3939394,41 C64.7286574,41 65,41.2238576 65,41.5 C65,41.7761424 64.7286574,42 64.3939394,42 Z" id="Path"></path>
                    <path d="M23.4,42 L10.6060606,42 C10.2713426,42 10,41.7761424 10,41.5 C10,41.2238576 10.2713426,41 10.6060606,41 L23.3939394,41 C23.7286574,41 24,41.2238576 24,41.5 C24,41.7761424 23.7286574,42 23.3939394,42 L23.4,42 Z" id="Path"></path>
                    <path d="M59.3908154,33 L47.6091846,33 C47.2727412,33 47,32.7761424 47,32.5 C47,32.2238576 47.2727412,32 47.6091846,32 L59.3908154,32 C59.7272588,32 60,32.2238576 60,32.5 C60,32.7761424 59.7272588,33 59.3908154,33 Z" id="Path"></path>
                    <path d="M26.3919551,33 L14.6080449,33 C14.272231,33 14,32.7761424 14,32.5 C14,32.2238576 14.272231,32 14.6080449,32 L26.3919551,32 C26.727769,32 27,32.2238576 27,32.5 C27,32.7761424 26.727769,33 26.3919551,33 Z" id="Path"></path>
                    <path d="M55.3851314,24 L45.6148686,24 C45.2752861,24 45,23.7761424 45,23.5 C45,23.2238576 45.2752861,23 45.6148686,23 L55.3851314,23 C55.7247139,23 56,23.2238576 56,23.5 C56,23.7761424 55.7247139,24 55.3851314,24 Z" id="Path"></path>
                    <path d="M28.3865031,24 L18.6134969,24 C18.2746719,24 18,23.7761424 18,23.5 C18,23.2238576 18.2746719,23 18.6134969,23 L28.3865031,23 C28.7253281,23 29,23.2238576 29,23.5 C29,23.7761424 28.7253281,24 28.3865031,24 Z" id="Path"></path>
                    <path d="M50.4065282,16 L43.5934718,16 C43.2657064,16 43,15.7761424 43,15.5 C43,15.2238576 43.2657064,15 43.5934718,15 L50.4065282,15 C50.7342936,15 51,15.2238576 51,15.5 C51,15.7761424 50.7342936,16 50.4065282,16 Z" id="Path"></path>
                    <path d="M30.4065282,16 L23.5934718,16 C23.2657064,16 23,15.7761424 23,15.5 C23,15.2238576 23.2657064,15 23.5934718,15 L30.4065282,15 C30.7342936,15 31,15.2238576 31,15.5 C31,15.7761424 30.7342936,16 30.4065282,16 Z" id="Path"></path>
                    <path d="M45.3814433,9 L40.6185567,9 C40.2769373,9 40,8.77614237 40,8.5 C40,8.22385763 40.2769373,8 40.6185567,8 L45.3814433,8 C45.7230627,8 46,8.22385763 46,8.5 C46,8.77614237 45.7230627,9 45.3814433,9 Z" id="Path"></path>
                    <path d="M32.3814433,9 L27.6185567,9 C27.2769373,9 27,8.77614237 27,8.5 C27,8.22385763 27.2769373,8 27.6185567,8 L32.3814433,8 C32.7230627,8 33,8.22385763 33,8.5 C33,8.77614237 32.7230627,9 32.3814433,9 Z" id="Path"></path>
                </g>
            </g>
        </g>
    </g>
</svg>