<?xml version="1.0" encoding="UTF-8"?>
<svg width="37px" height="33px" viewBox="0 0 37 33" version="1.1" xmlns="http://www.w3.org/2000/svg" xmlns:xlink="http://www.w3.org/1999/xlink">
    <!-- Generator: Sketch 52.5 (67469) - http://www.bohemiancoding.com/sketch -->
    <title>noun_Direct Booking_94686</title>
    <desc>Created with Sketch.</desc>
    <g id="Page-1" stroke="none" stroke-width="1" fill="none" fill-rule="evenodd">
        <g id="Precios-de-traslados" transform="translate(-1163.000000, -370.000000)" fill="#399F9D">
            <g id="Price-Table" transform="translate(23.000000, 178.000000)">
                <g id="noun_Direct-Booking_94686" transform="translate(1140.000000, 192.000000)">
                    <g id="Group">
                        <rect id="Rectangle" x="14.7482" y="5.43644444" width="4.83795556" height="1.20877778"></rect>
                        <rect id="Rectangle" x="23.1772111" y="5.43644444" width="4.83877778" height="1.20877778"></rect>
                        <path d="M6.98313333,9.79692593 C6.98313333,8.05892593 8.4101,6.64481481 10.1639,6.64481481 L11.1571444,6.64481481 L11.1571444,5.43603704 L10.1639,5.43603704 C7.73382222,5.43603704 5.76377778,7.38833333 5.76377778,9.79651852 L5.76377778,20.2945926 L6.98354444,20.2945926 L6.98354444,9.79692593 L6.98313333,9.79692593 Z" id="Path"></path>
                        <path d="M32.5998778,5.43644444 L31.6074556,5.43644444 L31.6074556,6.64522222 L32.5998778,6.64522222 C34.3536778,6.64522222 35.7806444,8.05933333 35.7806444,9.79733333 L35.7806444,28.2903704 C35.7806444,30.0283704 34.3536778,31.4424815 32.5998778,31.4424815 L10.1634889,31.4424815 C8.40968889,31.4424815 6.98272222,30.0283704 6.98272222,28.2903704 L6.98272222,23.1028519 L5.76295556,23.1028519 L5.76295556,28.2895556 C5.76295556,30.6977407 7.733,32.650037 10.1630778,32.650037 L32.5990556,32.650037 C35.0299556,32.6504444 37,30.6981481 37,28.289963 L37,9.79692593 C37,7.38874074 35.0299556,5.43644444 32.5998778,5.43644444 Z" id="Path"></path>
                        <path d="M12.9771333,11.5878889 L12.9273889,11.5878889 C11.2788333,11.5878889 9.93696667,10.2585185 9.93696667,8.62440741 L9.93696667,2.96348148 C9.93696667,1.32977778 11.2784222,-8.8817842e-16 12.9273889,-8.8817842e-16 L12.9771333,-8.8817842e-16 C14.6261,-8.8817842e-16 15.9675556,1.32937037 15.9675556,2.96348148 L15.9675556,8.62481481 C15.9675556,10.2585185 14.6261,11.5878889 12.9771333,11.5878889 Z M12.9273889,1.20877778 C11.951,1.20877778 11.1567333,1.99588889 11.1567333,2.96348148 L11.1567333,8.62481481 C11.1567333,9.59240741 11.951,10.3795185 12.9273889,10.3795185 L12.9771333,10.3795185 C13.9535222,10.3795185 14.7477889,9.59240741 14.7477889,8.62481481 L14.7477889,2.96348148 C14.7477889,1.99588889 13.9535222,1.20877778 12.9771333,1.20877778 L12.9273889,1.20877778 Z" id="Shape" fill-rule="nonzero"></path>
                        <path d="M29.8368,11.5878889 L29.7866444,11.5878889 C28.1380889,11.5878889 26.7962222,10.2585185 26.7962222,8.62440741 L26.7962222,2.96348148 C26.7962222,1.32977778 28.1376778,-8.8817842e-16 29.7866444,-8.8817842e-16 L29.8368,-8.8817842e-16 C31.4853556,-8.8817842e-16 32.8272222,1.32937037 32.8272222,2.96348148 L32.8272222,8.62481481 C32.8272222,10.2585185 31.4857667,11.5878889 29.8368,11.5878889 Z M29.7866444,1.20877778 C28.8102556,1.20877778 28.0159889,1.99588889 28.0159889,2.96348148 L28.0159889,8.62481481 C28.0159889,9.59240741 28.8102556,10.3795185 29.7866444,10.3795185 L29.8368,10.3795185 C30.8131889,10.3795185 31.6074556,9.59240741 31.6074556,8.62481481 L31.6074556,2.96348148 C31.6074556,1.99588889 30.8131889,1.20877778 29.8368,1.20877778 L29.7866444,1.20877778 Z" id="Shape" fill-rule="nonzero"></path>
                        <path d="M21.4069667,11.5878889 L21.3572222,11.5878889 C19.7086667,11.5878889 18.3668,10.2585185 18.3668,8.62440741 L18.3668,2.96348148 C18.3668,1.32937037 19.7086667,0 21.3572222,0 L21.4069667,0 C23.0559333,0 24.3978,1.32937037 24.3978,2.96348148 L24.3978,8.62481481 C24.3973889,10.2585185 23.0559333,11.5878889 21.4069667,11.5878889 Z M21.3572222,1.20877778 C20.3804222,1.20877778 19.5865667,1.99588889 19.5865667,2.96348148 L19.5865667,8.62481481 C19.5865667,9.59240741 20.3804222,10.3795185 21.3572222,10.3795185 L21.4069667,10.3795185 C22.3837667,10.3795185 23.1780333,9.59240741 23.1780333,8.62481481 L23.1780333,2.96348148 C23.1780333,1.99588889 22.3837667,1.20877778 21.4069667,1.20877778 L21.3572222,1.20877778 Z" id="Shape" fill-rule="nonzero"></path>
                        <path d="M13.6608111,29.5341852 L13.6353222,24.3116296 L0,24.3116296 L0,19.0862222 L13.6098333,19.0862222 L13.5835222,13.7182222 L21.6018333,21.5872963 L13.6608111,29.5341852 Z M14.8661889,26.6102222 L19.8772222,21.5954444 L14.8172667,16.629963 L14.8172667,20.295 L1.21976667,20.295 L1.21976667,23.1032593 L14.8661889,23.1032593 L14.8661889,26.6102222 Z" id="Shape" fill-rule="nonzero"></path>
                    </g>
                </g>
            </g>
        </g>
    </g>
</svg>